<?xml version="1.0" encoding="utf-8"?>
<!-- Generator: Adobe Illustrator 16.0.0, SVG Export Plug-In . SVG Version: 6.00 Build 0)  -->
<!DOCTYPE svg PUBLIC "-//W3C//DTD SVG 1.1//EN" "http://www.w3.org/Graphics/SVG/1.1/DTD/svg11.dtd">
<svg version="1.1" xmlns="http://www.w3.org/2000/svg" xmlns:xlink="http://www.w3.org/1999/xlink" x="0px" y="0px" width="300px"
	 height="300px" viewBox="0 0 300 300" enable-background="new 0 0 300 300" xml:space="preserve">
<g id="Layer_1">
	<g>
		<path fill-rule="evenodd" clip-rule="evenodd" fill="#88D3DE" d="M300,255c0,24.853-20.147,45-45,45H45c-24.853,0-45-20.147-45-45
			V45C0,20.147,20.147,0,45,0h210c24.853,0,45,20.147,45,45V255z"/>
		<g>
			<path fill-rule="evenodd" clip-rule="evenodd" fill="#FED813" d="M138.205,88.566c-13.498,0-27.001,0-40.5,0
				c-6.755,2.346-25.961,39.902-31,48c-11.691-0.339-29.719-2.469-33.5,5.5c-3.477,7.016-1.09,32.5-1,42.5
				c-7.642,1.232-7.986,10.096-7.333,16.123c0.618,5.704,1.723,9.965,7.894,10.836c7.236,1.021,14.663,0.59,21.939,0.541
				c7.22,23.903,47.183,23.581,54.5,0c26.998,0,54.003,0,81,0c7.374,23.58,47.064,23.428,54.5,0
				c0.191-0.604,22.253,1.088,25.976-2.352c8.169-7.547,5.48-25.325-6.976-25.648c-3.166-10.5-6.333-21.002-9.5-31.5
				c-15.558-6.021-32.452-10.899-50.5-16c-6.271-15.79-21.387-35.774-31.5-49c-4.833,0-9.667,0-14.5,0
				c0.668,0-0.428-9.025-0.736-9.907c-0.896-2.556-2.331-4.32-4.862-5.346c-3.278-1.327-8.377-1.384-11.152,1.1
				C137.414,76.582,138.153,84.305,138.205,88.566z"/>
			<g>
				<circle fill-rule="evenodd" clip-rule="evenodd" cx="82.123" cy="198.649" r="31.25"/>
				<circle fill-rule="evenodd" clip-rule="evenodd" fill="#D8D8D8" cx="81.79" cy="198.816" r="20"/>
			</g>
			<g>
				<circle fill-rule="evenodd" clip-rule="evenodd" cx="217.123" cy="198.649" r="31.25"/>
				<circle fill-rule="evenodd" clip-rule="evenodd" fill="#D8D8D8" cx="216.789" cy="198.816" r="20"/>
			</g>
			<path fill-rule="evenodd" clip-rule="evenodd" fill="#C2E7EC" d="M135.29,100.316c0,13.165,0,26.335,0,39.5
				c-14.149,0.306-39.075,3.522-44-6c2.792-6.292,14.414-30.018,19.5-32.5C116.015,98.688,128.185,100.211,135.29,100.316z"/>
			<path fill-rule="evenodd" clip-rule="evenodd" fill="#FFFFFF" d="M143.732,70.804c3.57-1.437,7.973-0.551,11.306,1.554
				c0.228,2.035,2.794,4.928,3,5.821c0.167,3.175,0.333,6.35,0.5,9.525c-6.999,0.177-14,0.353-20.999,0.529
				c-1.487,0.038,1.085-12.599,2.243-14.258C140.851,72.442,142.216,71.414,143.732,70.804z"/>
			<rect x="31.789" y="153.982" fill-rule="evenodd" clip-rule="evenodd" fill="#D6B734" width="215" height="5"/>
			<path fill-rule="evenodd" clip-rule="evenodd" fill="#A11D21" d="M31.759,148.704c0.836,0.15,1.674,0.3,2.51,0.45
				c6.512,3.164,10.938,18.257,12.04,26.764c-5.939,0.382-9.291,1.299-14.507-0.209C31.788,166.708,31.772,157.705,31.759,148.704z"
				/>
			<path fill-rule="evenodd" clip-rule="evenodd" fill="#D2CFC7" d="M256.678,160.66c-2.56-0.338-5.264-0.221-7.822-0.314
				c-0.656,0.514-1.312,1.029-1.967,1.543c2.599,4.443,5.198,8.889,7.797,13.331c0.678,0.485,1.355,0.97,2.033,1.456
				c0.703,0.504,3.684-0.104,4.54-0.214c0.007-0.526-0.034-1.057-0.097-1.59C259.623,170.182,258.271,165.295,256.678,160.66z"/>
			<path fill-rule="evenodd" clip-rule="evenodd" fill="#C2E7EC" d="M150.205,100.232c6.65-0.101,14.314-0.211,19.5,1
				c4.408,6.485,14.592,17.509,15.5,24.5c-2.333,0-4.667,0-7,0c0,0.167,0,0.333,0,0.5c0.95,3.221,1.609,9.646,0.5,13.5
				c-9.499,0-19.001,0-28.5,0C150.205,126.567,150.205,113.397,150.205,100.232z"/>
			<path fill-rule="evenodd" clip-rule="evenodd" fill="#D6B734" d="M178.539,139.732c-0.167-5.222-0.334-10.445-0.5-15.667
				c1.166,0,2.333,0,3.5,0c7.855,2.571,12.1,6.58,13.5,15.667C189.539,139.732,184.038,139.732,178.539,139.732z"/>
		</g>
	</g>
</g>
<g id="Layer_2">
</g>
</svg>
