<?xml version="1.0" encoding="utf-8"?>
<!-- Generator: Adobe Illustrator 16.0.0, SVG Export Plug-In . SVG Version: 6.00 Build 0)  -->
<!DOCTYPE svg PUBLIC "-//W3C//DTD SVG 1.1//EN" "http://www.w3.org/Graphics/SVG/1.1/DTD/svg11.dtd">
<svg version="1.1" id="Layer_1" xmlns="http://www.w3.org/2000/svg" xmlns:xlink="http://www.w3.org/1999/xlink" x="0px" y="0px"
	 width="194.403px" height="551.335px" viewBox="0 0 194.403 551.335" enable-background="new 0 0 194.403 551.335"
	 xml:space="preserve">
<g>
	<g>
		
			<rect x="69.504" y="0.5" fill-rule="evenodd" clip-rule="evenodd" fill="#231F20" stroke="#231F20" width="3.777" height="17.367"/>
		<polygon fill-rule="evenodd" clip-rule="evenodd" fill="#231F20" stroke="#231F20" points="82.197,23.499 78.436,23.11 
			80.24,5.831 84.002,6.216 		"/>
		<polygon fill-rule="evenodd" clip-rule="evenodd" fill="#231F20" stroke="#231F20" points="69.213,19.013 65.152,20.214 
			59.778,1.985 63.844,0.787 		"/>
		<path fill-rule="evenodd" clip-rule="evenodd" fill="#231F20" stroke="#231F20" stroke-width="2" d="M193.403,405.067
			c0,45.268-37.716,81.967-84.226,81.967c-46.533,0-84.25-36.699-84.25-81.967c0.002-45.279,37.717-81.977,84.25-81.977
			C155.688,323.091,193.403,359.79,193.403,405.067z"/>
		<path fill-rule="evenodd" clip-rule="evenodd" fill="#F5B2D0" d="M187.357,404.683c0,42.558-35.18,77.066-78.564,77.066
			c-43.393,0-78.573-34.508-78.573-77.066c0-42.557,35.181-77.064,78.573-77.066C152.178,327.616,187.357,362.126,187.357,404.683z"
			/>
		<path fill-rule="evenodd" clip-rule="evenodd" fill="#231F20" stroke="#231F20" d="M96.701,464.37c0,0,6.809,49.859,12.85,47.598
			c6.039-2.277,15.107-3.786,15.107-6.043c0-2.271-2.266-34.004,6.797-43.066C138.898,455.413,96.701,464.37,96.701,464.37z"/>
		<path fill-rule="evenodd" clip-rule="evenodd" fill="#F3B0CF" d="M100.48,459.831c0,0,5.357,49.859,10.121,47.602
			c4.76-2.27,11.908-3.778,11.908-6.047c0-2.258-1.791-34.001,5.357-43.066C133.727,450.886,100.48,459.831,100.48,459.831z"/>
		<path fill-rule="evenodd" clip-rule="evenodd" fill="#231F20" stroke="#231F20" d="M112.566,466.636
			c0,0,6.803,49.859,12.85,47.594c6.039-2.262,15.107-3.777,15.107-6.047c0-2.259-2.271-33.992,6.797-43.066
			C154.764,457.683,112.566,466.636,112.566,466.636z"/>
		<path fill-rule="evenodd" clip-rule="evenodd" fill="#F3B0CF" d="M113.564,448.311c0,0,8.139,63.657,12.896,61.38
			c4.764-2.258,11.914-3.766,11.912-6.036c0-2.269-1.789-34,5.354-43.065C149.592,453.144,113.564,448.311,113.564,448.311z"/>
		<polygon fill-rule="evenodd" clip-rule="evenodd" fill="#231F20" stroke="#231F20" points="75.207,154.101 99.619,329.13 
			95.049,348.313 125.824,344.392 89.17,153.231 		"/>
		<path fill-rule="evenodd" clip-rule="evenodd" fill="#F3B0CF" d="M78.947,154.62c0,0,23.049,169.232,23.803,177.533
			c0.754,8.305-6.047,20.402-6.047,20.402l25.689-4.539L84.002,153.483L78.947,154.62z"/>
		<path fill-rule="evenodd" clip-rule="evenodd" fill="#231F20" stroke="#231F20" d="M100.48,107.025c0,0,21.533,16.996,5.1,45.325
			c-16.434,28.326-35.13,8.5-60.061,18.139c-24.937,9.626-33.999,21.523-35.695,24.924c-1.703,3.404-4.538,0.576-4.538-7.93
			c0-8.5,0-30.596,7.367-38.525c7.363-7.941,14.734-18.141,28.335-20.41c13.595-2.258,32.861-14.726,33.996-18.689
			C76.117,105.893,100.48,107.025,100.48,107.025z"/>
		<path fill-rule="evenodd" clip-rule="evenodd" fill="#F3B0CF" d="M36.438,153.298c-5.785-4.957-16.133-8.064-14.691-9.438
			c1.149-1.091,2.332-2.171,3.566-3.24c4.828-4.143,10.497-7.809,18.489-8.953c12.622-1.797,30.505-11.711,31.556-14.861
			c1.045-3.148,23.664-2.256,23.664-2.256s19.988,13.512,4.736,36.038c-15.25,22.535-32.605,6.751-55.748,14.416"/>
		<path fill-rule="evenodd" clip-rule="evenodd" fill="#231F20" stroke="#231F20" d="M45.708,51.495
			c0,0,14.214-39.498,23.961-40.872c15.034-2.129,25.37,10.218,33.835,40.873"/>
		<path fill-rule="evenodd" clip-rule="evenodd" fill="#F3B0CF" stroke="#231F20" d="M51.754,51.495
			c0,0,11.426-35.035,19.264-36.258c12.09-1.894,20.398,9.065,27.195,36.258"/>
		<path fill-rule="evenodd" clip-rule="evenodd" fill="#231F20" stroke="#231F20" d="M127.682,74.843
			c0,22.943-12.689,41.558-28.336,41.557c-15.65,0-28.328-18.613-28.328-41.557c0-22.952,12.678-41.554,28.328-41.554
			C114.992,33.289,127.682,51.891,127.682,74.843z"/>
		<path fill-rule="evenodd" clip-rule="evenodd" fill="#FFFFFF" d="M123.9,74.843c0,19.882-10.992,36.005-24.555,36.004
			c-13.559,0-24.551-16.123-24.551-36.004c0-19.891,10.992-36.014,24.551-36.014C112.908,38.829,123.9,54.952,123.9,74.843z"/>
		<path fill-rule="evenodd" clip-rule="evenodd" fill="#231F20" d="M110.752,81.64c0,3.999-3.252,7.246-7.248,7.246
			c-4.002,0-7.254-3.248-7.254-7.246c0-4.009,3.252-7.248,7.254-7.248C107.5,74.393,110.752,77.63,110.752,81.64z"/>
		<g>
			<path fill-rule="evenodd" clip-rule="evenodd" fill="#231F20" stroke="#231F20" d="M87.213,80.064
				c0,25.838-14.285,46.787-31.896,46.786c-17.617,0-31.896-20.948-31.896-46.786c0-25.827,14.278-46.776,31.896-46.775
				C72.928,33.289,87.213,54.237,87.213,80.064z"/>
			<path fill-rule="evenodd" clip-rule="evenodd" fill="#FFFFFF" d="M82.957,80.494c0,23.482-12.374,42.524-27.64,42.524
				c-15.263,0-27.646-19.042-27.646-42.525c0-23.492,12.383-42.523,27.646-42.523C70.583,37.97,82.957,57.002,82.957,80.494z"/>
			<path fill-rule="evenodd" clip-rule="evenodd" fill="#231F20" d="M62.762,83.259c0,4.692-3.814,8.501-8.507,8.5
				c-4.698,0-8.508-3.809-8.508-8.5c0-4.691,3.81-8.503,8.508-8.503C58.947,74.755,62.762,78.569,62.762,83.259z"/>
		</g>
		<path fill-rule="evenodd" clip-rule="evenodd" fill="#231F20" stroke="#231F20" d="M135.229,550.768V509.69l-6.797,2.269
			l0.651,38.876c2.026,0,4.052,0,6.078,0C135.184,550.812,135.206,550.79,135.229,550.768z"/>
		<path fill-rule="evenodd" clip-rule="evenodd" fill="#231F20" stroke="#231F20" d="M117.1,509.69l-6.795,2.27l3.44,38.875
			c2.104,0,4.208,0,6.312,0L117.1,509.69z"/>
		<path fill-rule="evenodd" clip-rule="evenodd" fill="#231F20" stroke="#231F20" stroke-width="2" d="M48.354,349.536
			c0,0-37.777,12.336-46.841,37.02c0,0,38.534-5.291,42.305-5.291C47.596,381.267,48.354,349.536,48.354,349.536z"/>
		<path fill-rule="evenodd" clip-rule="evenodd" fill="#F3B0CF" d="M64.189,347.466c0,0-46.47,14.152-54.365,32.293
			c0,0,33.576-4.209,36.848-3.889C68.391,377.931,64.189,347.466,64.189,347.466z"/>
	</g>
</g>
</svg>
