<?xml version="1.0" encoding="utf-8"?>
<!-- Generator: Adobe Illustrator 16.0.0, SVG Export Plug-In . SVG Version: 6.00 Build 0)  -->
<!DOCTYPE svg PUBLIC "-//W3C//DTD SVG 1.1//EN" "http://www.w3.org/Graphics/SVG/1.1/DTD/svg11.dtd">
<svg version="1.1" id="Layer_1" xmlns="http://www.w3.org/2000/svg" xmlns:xlink="http://www.w3.org/1999/xlink" x="0px" y="0px"
	 width="300px" height="300px" viewBox="0 0 300 300" enable-background="new 0 0 300 300" xml:space="preserve">
<path fill-rule="evenodd" clip-rule="evenodd" fill="#05998A" d="M300,255c0,24.853-20.147,45-45,45H45c-24.853,0-45-20.147-45-45
	V45C0,20.147,20.147,0,45,0h210c24.853,0,45,20.147,45,45V255z"/>
<path fill-rule="evenodd" clip-rule="evenodd" fill="#FFFFFF" d="M84.475,30.24l-6.197,3.819l38.083,56.454H78.416
	c-0.015,0.574-0.023,1.15-0.023,1.727c0,83.79,68.183,38.795,68.183,99.766v45.861l-59.127,7.159h59.127h6.967h59.124l-59.124-7.159
	v-46.325c0-60.085,68.18-15.709,68.18-99.302c0-0.577-0.009-1.153-0.021-1.727h-96.568L84.475,30.24L84.475,30.24z M119.757,95.546
	l2.842,4.213h8.771l-2.842-4.213h85.969c0.012,0.488,0.021,0.979,0.021,1.469c0,50.78-33.51,46.052-50.42,57.809h-28.98
	C118.204,142.956,85.6,147.89,85.6,97.016c0-0.491,0.006-0.981,0.018-1.469H119.757L119.757,95.546z M208.893,104.107
	c0.015-0.437-0.006-0.875-0.018-1.31H91.239c-0.012,0.435-0.023,0.872-0.018,1.31c0.577,39.91,30.407,36.193,45.504,46.784h25.86
	C177.68,140.398,207.592,144.222,208.893,104.107L208.893,104.107z"/>
<path fill-rule="evenodd" clip-rule="evenodd" fill="#A4D6AD" d="M208.893,104.107c0.015-0.437-0.006-0.875-0.018-1.31H91.239
	c-0.012,0.435-0.023,0.872-0.018,1.31c0.577,39.91,30.407,36.193,45.504,46.784h25.86
	C177.68,140.398,207.592,144.222,208.893,104.107L208.893,104.107z"/>
<path fill="#FFC813" d="M161.761,87.192c0.17-10.424,4.201-20.795,12.094-28.69c16.138-16.134,42.62-16.134,58.756,0
	c16.137,16.137,16.137,42.618,0,58.755c-2.795,2.795-5.9,5.106-9.208,6.932l0.42-5.089c2.074-1.362,4.039-2.953,5.858-4.772
	c14.525-14.525,14.525-38.37,0-52.893c-14.525-14.529-38.37-14.529-52.896,0c-7.088,7.087-10.715,16.395-10.884,25.758H161.761
	L161.761,87.192z M202.141,83.272c-4.559-7.345-9.023-14.977-13.488-22.321c-2.094-7.823,10.371-11.602,13.488-4.846
	C202.141,65.161,202.141,74.217,202.141,83.272L202.141,83.272z M225.507,98.712l5.774,3.161c7.423,0.51,10.093-12.24,2.227-14.159
	c-2.356,0.108-4.731,0.205-7.116,0.296L225.507,98.712L225.507,98.712z M224.193,114.605c5.301-0.311,10.179-7.562,5.435-12.126
	c-1.412-0.735-2.827-1.482-4.248-2.232L224.193,114.605L224.193,114.605z M207.45,86.504c7.723-4.731,15.445-9.46,23.168-14.188
	c7.39-0.87,10.677,11.736,2.915,14.033C224.935,86.375,216.096,86.554,207.45,86.504L207.45,86.504z M206.542,84.734
	c4.368-7.934,8.736-15.867,13.104-23.801c5.991-4.415,15.086,4.91,9.48,10.752C221.671,75.966,214.08,80.498,206.542,84.734
	L206.542,84.734z M204.326,83.366c0-9.053,0-18.111,0-27.167c3.116-6.756,15.584-2.977,13.489,4.846
	C213.351,68.393,208.886,76.021,204.326,83.366L204.326,83.366z M199.016,86.407c-7.722-4.729-15.445-9.457-23.169-14.188
	c-7.389-0.87-10.676,11.736-2.912,14.033C181.531,86.281,190.369,86.46,199.016,86.407L199.016,86.407z M199.926,84.638
	c-4.371-7.934-8.738-15.867-13.107-23.798c-5.989-4.415-15.085,4.91-9.478,10.749C184.796,75.872,192.389,80.401,199.926,84.638
	L199.926,84.638z"/>
</svg>
