<?xml version="1.0" encoding="utf-8"?>
<!-- Generator: Adobe Illustrator 16.0.0, SVG Export Plug-In . SVG Version: 6.00 Build 0)  -->
<!DOCTYPE svg PUBLIC "-//W3C//DTD SVG 1.1//EN" "http://www.w3.org/Graphics/SVG/1.1/DTD/svg11.dtd">
<svg version="1.1" id="Layer_1" xmlns="http://www.w3.org/2000/svg" xmlns:xlink="http://www.w3.org/1999/xlink" x="0px" y="0px"
	 width="300px" height="300px" viewBox="0 0 300 300" enable-background="new 0 0 300 300" xml:space="preserve">
<path fill-rule="evenodd" clip-rule="evenodd" fill="#4661AB" d="M300,255c0,24.853-20.147,45-45,45H45c-24.853,0-45-20.147-45-45
	V45C0,20.147,20.147,0,45,0h210c24.853,0,45,20.147,45,45V255z"/>
<g>
	<defs>
		<path id="SVGID_1_" d="M300,255c0,24.853-20.147,45-45,45H45c-24.853,0-45-20.147-45-45V45C0,20.147,20.147,0,45,0h210
			c24.853,0,45,20.147,45,45V255z"/>
	</defs>
	<clipPath id="SVGID_2_">
		<use xlink:href="#SVGID_1_"  overflow="visible"/>
	</clipPath>
	<g clip-path="url(#SVGID_2_)">
		<linearGradient id="SVGID_3_" gradientUnits="userSpaceOnUse" x1="94.0049" y1="13.2466" x2="94.0049" y2="109.8677">
			<stop  offset="0" style="stop-color:#F48220"/>
			<stop  offset="0.2368" style="stop-color:#F07E21"/>
			<stop  offset="0.4848" style="stop-color:#E87323"/>
			<stop  offset="0.7379" style="stop-color:#DD6225"/>
			<stop  offset="0.9931" style="stop-color:#D04827"/>
			<stop  offset="1" style="stop-color:#CF4727"/>
		</linearGradient>
		<path fill="url(#SVGID_3_)" d="M78.76,13.247h30.795c3.447,0,6.252,2.788,6.252,6.245c0,3.45-2.805,6.249-6.252,6.249H78.76
			c-3.453,0-6.249-2.799-6.249-6.249C72.511,16.034,75.308,13.247,78.76,13.247z M78.76,35.197h30.795
			c3.447,0,6.252,2.814,6.252,6.262c0,3.437-2.805,6.245-6.252,6.245H78.76c-3.453,0-6.249-2.808-6.249-6.245
			C72.511,38.011,75.308,35.197,78.76,35.197z M78.76,55.931h30.795c3.447,0,6.252,2.801,6.252,6.25
			c0,3.448-2.805,6.245-6.252,6.245H78.76c-3.453,0-6.249-2.796-6.249-6.245C72.511,58.731,75.308,55.931,78.76,55.931z
			 M78.76,76.652h30.795c3.447,0,6.252,2.796,6.252,6.258c0,3.441-2.805,6.249-6.252,6.249H78.76c-3.453,0-6.249-2.808-6.249-6.249
			C72.511,79.449,75.308,76.652,78.76,76.652z M56.588,109.868H25.805c-3.453,0-6.253-2.796-6.253-6.249
			c0-3.45,2.801-6.245,6.253-6.245h30.784c3.458,0,6.258,2.795,6.258,6.245C62.846,107.071,60.047,109.868,56.588,109.868z
			 M19.547,62.181c0-3.45,2.805-6.25,6.253-6.25h30.801c3.445,0,6.243,2.801,6.243,6.25c0,3.448-2.798,6.245-6.243,6.245H25.8
			C22.352,68.426,19.547,65.629,19.547,62.181z M56.602,89.159H25.8c-3.448,0-6.249-2.801-6.249-6.249
			c0-3.461,2.801-6.258,6.249-6.258h30.801c3.445,0,6.245,2.796,6.245,6.258C62.846,86.358,60.047,89.159,56.602,89.159z
			 M56.588,47.704H25.805c-3.453,0-6.258-2.793-6.258-6.245c0-3.448,2.805-6.262,6.258-6.262h30.784
			c3.458,0,6.258,2.814,6.258,6.262C62.846,44.911,60.047,47.704,56.588,47.704z M109.556,109.868H78.744
			c-3.441,0-6.233-2.796-6.233-6.249c0-3.45,2.792-6.245,6.233-6.245h30.812c3.447,0,6.258,2.795,6.258,6.245
			C115.813,107.071,113.002,109.868,109.556,109.868z M162.223,109.868h-30.794c-3.461,0-6.256-2.796-6.256-6.249
			c0-3.45,2.795-6.245,6.256-6.245h30.794c3.435,0,6.24,2.795,6.24,6.245C168.463,107.071,165.658,109.868,162.223,109.868z
			 M162.223,89.159h-30.794c-3.461,0-6.256-2.801-6.256-6.249c0-3.461,2.795-6.258,6.256-6.258h30.794
			c3.435,0,6.24,2.796,6.24,6.258C168.463,86.358,165.658,89.159,162.223,89.159z M162.223,68.426h-30.794
			c-3.461,0-6.256-2.796-6.256-6.245c0-3.45,2.795-6.25,6.256-6.25h30.794c3.435,0,6.24,2.801,6.24,6.25
			C168.463,65.629,165.658,68.426,162.223,68.426z"/>
	</g>
	<polygon clip-path="url(#SVGID_2_)" fill-rule="evenodd" clip-rule="evenodd" fill="#204595" points="-28.846,142.276 
		319.887,-24.215 415.093,120.441 7.153,306.519 	"/>
	<g clip-path="url(#SVGID_2_)">
		<polygon fill="#FFFFFF" points="122.625,143.867 184.713,104.875 214.6,162.68 149.405,197.244 		"/>
		<g>
			
				<linearGradient id="SVGID_4_" gradientUnits="userSpaceOnUse" x1="653.7539" y1="-459.4053" x2="653.7539" y2="-298.7267" gradientTransform="matrix(0.8997 -0.4366 0.4366 0.8997 -171.1107 693.6246)">
				<stop  offset="0" style="stop-color:#97A2AA"/>
				<stop  offset="0.2399" style="stop-color:#8E98A0"/>
				<stop  offset="0.5884" style="stop-color:#7B828A"/>
				<stop  offset="1" style="stop-color:#5E646B"/>
			</linearGradient>
			<path fill="url(#SVGID_4_)" d="M277.848,27.152l-73.951,35.886c-9.826,4.768-13.968,16.711-9.199,26.537l29.98,61.784
				c4.77,9.826,16.713,13.966,26.537,9.199l73.954-35.886c9.826-4.77,13.964-16.712,9.194-26.537l-29.979-61.784
				C299.616,26.525,287.676,22.383,277.848,27.152z"/>
		</g>
		<circle fill="#504D4E" cx="262.511" cy="97.018" r="43.5"/>
		<g>
			
				<linearGradient id="SVGID_5_" gradientUnits="userSpaceOnUse" x1="539.9209" y1="-422.5879" x2="539.9209" y2="-298.6476" gradientTransform="matrix(0.8997 -0.4366 0.4366 0.8997 -171.1107 693.6246)">
				<stop  offset="0" style="stop-color:#97A2AA"/>
				<stop  offset="0.2399" style="stop-color:#8E98A0"/>
				<stop  offset="0.5884" style="stop-color:#7B828A"/>
				<stop  offset="1" style="stop-color:#5E646B"/>
			</linearGradient>
			<path fill="url(#SVGID_5_)" d="M177.478,102.596l-57.044,27.68c-7.578,3.677-10.77,12.891-7.093,20.469l23.125,47.658
				c3.677,7.58,12.891,10.771,20.468,7.096l57.044-27.682c7.582-3.678,10.772-12.891,7.093-20.47l-23.124-47.657
				C194.271,102.111,185.06,98.917,177.478,102.596z M151.468,173.344l-0.688,0.333l7.333,15.109c0.533,1.1,0.067,2.435-1.028,2.968
				c-1.102,0.533-2.435,0.071-2.968-1.026l-7.333-15.113l-0.697,0.338c-3.432,1.668-7.585,0.228-9.253-3.209
				c-1.667-3.436-0.231-7.594,3.204-9.26l0.697-0.338l-10.743-22.137c-0.533-1.104-0.072-2.436,1.027-2.971
				c1.099-0.533,2.436-0.07,2.969,1.031l10.742,22.137l0.686-0.336c3.441-1.668,7.598-0.223,9.267,3.216
				C156.346,167.52,154.907,171.674,151.468,173.344z M167.391,147.429l-0.69,0.338l14.474,29.83c0.533,1.1,0.071,2.433-1.036,2.969
				c-1.094,0.53-2.424,0.068-2.956-1.031l-14.477-29.83l-0.705,0.342c-3.432,1.666-7.588,0.227-9.256-3.215
				c-1.668-3.436-0.227-7.59,3.207-9.257l0.702-0.341l-3.598-7.417c-0.535-1.102-0.075-2.435,1.018-2.965
				c1.107-0.538,2.442-0.075,2.975,1.028l3.601,7.417l0.69-0.335c3.435-1.667,7.588-0.226,9.255,3.209
				C172.263,141.611,170.824,145.764,167.391,147.429z M200.487,156.926l-0.691,0.335l4.438,9.146
				c0.531,1.101,0.067,2.432-1.029,2.964c-1.102,0.536-2.436,0.075-2.969-1.025l-4.438-9.146l-0.691,0.334
				c-3.444,1.672-7.599,0.232-9.268-3.206c-1.67-3.439-0.229-7.594,3.216-9.264l0.691-0.337l-13.636-28.099
				c-0.535-1.102-0.072-2.436,1.03-2.971c1.096-0.532,2.433-0.07,2.967,1.031l13.636,28.101l0.691-0.338
				c3.445-1.671,7.597-0.231,9.264,3.21C205.367,151.101,203.933,155.253,200.487,156.926z"/>
			
				<linearGradient id="SVGID_6_" gradientUnits="userSpaceOnUse" x1="-820.2886" y1="-2378.7876" x2="-820.2886" y2="-2370.9546" gradientTransform="matrix(0.8997 -0.4366 0.4366 0.8997 1969.6521 1930.5291)">
				<stop  offset="0" style="stop-color:#F48220"/>
				<stop  offset="0.2368" style="stop-color:#F07E21"/>
				<stop  offset="0.4848" style="stop-color:#E87323"/>
				<stop  offset="0.7379" style="stop-color:#DD6225"/>
				<stop  offset="0.9931" style="stop-color:#D04827"/>
				<stop  offset="1" style="stop-color:#CF4727"/>
			</linearGradient>
			<path fill="url(#SVGID_6_)" d="M190.371,149.776c-1.947,0.944-2.763,3.287-1.816,5.234c0.945,1.947,3.289,2.759,5.235,1.812
				l5.384-2.611c1.945-0.943,2.758-3.286,1.812-5.232c-0.947-1.95-3.288-2.758-5.233-1.814L190.371,149.776z"/>
			
				<linearGradient id="SVGID_7_" gradientUnits="userSpaceOnUse" x1="-845.9204" y1="-2401.7778" x2="-845.9204" y2="-2393.9458" gradientTransform="matrix(0.8997 -0.4366 0.4366 0.8997 1969.6521 1930.5291)">
				<stop  offset="0" style="stop-color:#F48220"/>
				<stop  offset="0.2368" style="stop-color:#F07E21"/>
				<stop  offset="0.4848" style="stop-color:#E87323"/>
				<stop  offset="0.7379" style="stop-color:#DD6225"/>
				<stop  offset="0.9931" style="stop-color:#D04827"/>
				<stop  offset="1" style="stop-color:#CF4727"/>
			</linearGradient>
			<path fill="url(#SVGID_7_)" d="M157.264,140.287c-1.942,0.942-2.751,3.283-1.808,5.231c0.946,1.95,3.286,2.759,5.228,1.815
				l5.389-2.615c1.942-0.943,2.76-3.283,1.813-5.231c-0.946-1.947-3.29-2.757-5.231-1.816L157.264,140.287z"/>
			
				<linearGradient id="SVGID_8_" gradientUnits="userSpaceOnUse" x1="-871.5532" y1="-2385.4146" x2="-871.5532" y2="-2377.5835" gradientTransform="matrix(0.8997 -0.4366 0.4366 0.8997 1969.6521 1930.5291)">
				<stop  offset="0" style="stop-color:#F48220"/>
				<stop  offset="0.2368" style="stop-color:#F07E21"/>
				<stop  offset="0.4848" style="stop-color:#E87323"/>
				<stop  offset="0.7379" style="stop-color:#DD6225"/>
				<stop  offset="0.9931" style="stop-color:#D04827"/>
				<stop  offset="1" style="stop-color:#CF4727"/>
			</linearGradient>
			<path fill="url(#SVGID_8_)" d="M141.354,166.196c-1.947,0.943-2.758,3.286-1.812,5.234c0.945,1.945,3.283,2.757,5.229,1.811
				l5.38-2.609c1.945-0.944,2.758-3.283,1.815-5.229c-0.946-1.949-3.289-2.76-5.235-1.815L141.354,166.196z"/>
		</g>
		<path fill="#FFFFFF" d="M243.659,54.724c-22.688,11.011-32.155,38.326-21.146,61.014c11.01,22.689,38.327,32.156,61.015,21.146
			c20.506-9.948,30.211-33.221,23.765-54.354c-0.69-2.25-1.56-4.477-2.618-6.659C293.664,53.183,266.347,43.717,243.659,54.724z
			 M281.786,133.295c-20.707,10.049-45.633,1.408-55.682-19.298c-10.048-20.707-1.409-45.633,19.298-55.682
			c20.705-10.047,45.635-1.409,55.68,19.298C311.131,98.317,302.49,123.249,281.786,133.295z M276.357,89.612
			c-3.42-7.05-11.909-9.99-18.957-6.571c-7.047,3.422-9.99,11.908-6.569,18.957s11.906,9.99,18.956,6.57
			C276.835,105.148,279.776,96.661,276.357,89.612z M258.012,98.512c-1.496-3.083-0.211-6.795,2.874-8.291
			c3.083-1.496,6.796-0.209,8.291,2.874c1.499,3.083,0.211,6.797-2.872,8.294C263.221,102.883,259.508,101.597,258.012,98.512z"/>
		<g>
			<polygon fill-rule="evenodd" clip-rule="evenodd" fill="#FFFFFF" points="317.295,86.06 296.019,111.138 292.368,107.665 
				311.102,85.458 291.01,44.055 295.789,41.738 			"/>
			
				<rect x="279.768" y="110.449" transform="matrix(0.7573 -0.6531 0.6531 0.7573 -5.0407 216.1846)" fill-rule="evenodd" clip-rule="evenodd" fill="#FFFFFF" width="17.111" height="8.85"/>
		</g>
		<g>
			
				<linearGradient id="SVGID_9_" gradientUnits="userSpaceOnUse" x1="425.502" y1="-461.3052" x2="425.502" y2="-300.6251" gradientTransform="matrix(0.8997 -0.4366 0.4366 0.8997 -171.1107 693.6246)">
				<stop  offset="0" style="stop-color:#97A2AA"/>
				<stop  offset="0.2399" style="stop-color:#8E98A0"/>
				<stop  offset="0.5884" style="stop-color:#7B828A"/>
				<stop  offset="1" style="stop-color:#5E646B"/>
			</linearGradient>
			<path fill="url(#SVGID_9_)" d="M71.66,125.098l-73.951,35.886c-9.826,4.768-13.967,16.711-9.199,26.537l29.981,61.784
				c4.77,9.826,16.711,13.964,26.537,9.199l73.954-35.886c9.826-4.77,13.964-16.713,9.195-26.537l-29.979-61.784
				C93.429,124.471,81.488,120.328,71.66,125.098z"/>
		</g>
		<circle fill="#504D4E" cx="56.324" cy="194.962" r="43.5"/>
		<path fill="#FFFFFF" d="M37.472,152.669c-22.688,11.012-32.155,38.326-21.148,61.014c11.011,22.688,38.328,32.154,61.017,21.146
			c20.505-9.949,30.211-33.221,23.763-54.354c-0.688-2.251-1.559-4.477-2.616-6.659C87.478,151.128,60.158,141.662,37.472,152.669z
			 M75.599,231.24c-20.707,10.049-45.633,1.407-55.682-19.3c-10.047-20.705-1.409-45.633,19.298-55.682
			c20.706-10.047,45.634-1.407,55.68,19.3C104.944,196.263,96.303,221.194,75.599,231.24z M70.17,187.558
			c-3.42-7.051-11.909-9.992-18.957-6.572c-7.049,3.421-9.99,11.908-6.57,18.955c3.42,7.051,11.906,9.992,18.957,6.572
			C70.648,203.093,73.589,194.604,70.17,187.558z M51.825,196.458c-1.497-3.084-0.211-6.796,2.873-8.291
			c3.085-1.496,6.797-0.21,8.292,2.873c1.497,3.082,0.211,6.797-2.874,8.293C57.034,200.829,53.32,199.542,51.825,196.458z"/>
		<g>
			<polygon fill-rule="evenodd" clip-rule="evenodd" fill="#FFFFFF" points="111.108,184.003 89.832,209.083 86.181,205.608 
				104.915,183.403 84.823,142 89.602,139.683 			"/>
			
				<rect x="73.58" y="208.394" transform="matrix(0.7573 -0.6531 0.6531 0.7573 -119.057 105.303)" fill-rule="evenodd" clip-rule="evenodd" fill="#FFFFFF" width="17.112" height="8.85"/>
		</g>
	</g>
</g>
</svg>
