<?xml version="1.0" encoding="utf-8"?>
<!-- Generator: Adobe Illustrator 16.0.0, SVG Export Plug-In . SVG Version: 6.00 Build 0)  -->
<!DOCTYPE svg PUBLIC "-//W3C//DTD SVG 1.1//EN" "http://www.w3.org/Graphics/SVG/1.1/DTD/svg11.dtd">
<svg version="1.1" id="Layer_1" xmlns="http://www.w3.org/2000/svg" xmlns:xlink="http://www.w3.org/1999/xlink" x="0px" y="0px"
	 width="300px" height="300px" viewBox="0 0 300 300" enable-background="new 0 0 300 300" xml:space="preserve">
<path fill-rule="evenodd" clip-rule="evenodd" fill="#3777BB" d="M300,255c0,24.853-20.147,45-45,45H45c-24.853,0-45-20.147-45-45
	V45C0,20.147,20.147,0,45,0h210c24.853,0,45,20.147,45,45V255z"/>
<g>
	<g>
		<path fill="#FFFFFF" d="M99.951,73.45l-9.892,173.163h18.46l2.508-46.009l16.09-2.431l-1.897,48.439h25.219V41.938L99.951,73.45z
			 M105.101,161.125l-6.196,1.932l0.582-12.094l6.138-2.188L105.101,161.125z M106.23,134.477l-6.069,2.473l0.554-11.512
			l6.015-2.703L106.23,134.477z M107.307,109.131l-5.949,2.962l0.527-10.975l5.896-3.167L107.307,109.131z M123.959,155.534
			l-7.356,2.19l0.407-12.799l7.273-2.474L123.959,155.534z M124.661,127.332l-7.181,2.795l0.384-12.142l7.104-3.051L124.661,127.332
			z M125.325,100.592l-7.014,3.335l0.365-11.539l6.94-3.562L125.325,100.592z M145.042,149.156l-8.079,2.505l0.17-13.585
			l7.978-2.826L145.042,149.156z M145.189,119.21l-7.859,3.183l0.164-12.845l7.761-3.467L145.189,119.21z M145.332,90.92
			l-7.649,3.79l0.151-12.166l7.559-4.04L145.332,90.92z"/>
		<path fill="#B7DFF7" d="M150.879,41.938v204.675h59.168L198.143,66.639L150.879,41.938z M164.121,179.207l-8.541-1.442
			l-0.092-15.056l8.393,1.729L164.121,179.207z M163.607,147.573l-8.22-2.042l-0.082-13.909l8.077,2.281L163.607,147.573z
			 M163.129,118.276l-7.917-2.546l-0.077-12.888l7.788,2.752L163.129,118.276z M162.686,91.072l-7.639-2.975l-0.069-11.972
			l7.517,3.148L162.686,91.072z M184.178,182.762l-7.387-1.293l-0.453-14.321l7.271,1.552L184.178,182.762z M182.956,152.609
			l-7.136-1.834l-0.42-13.285l7.028,2.055L182.956,152.609z M181.822,124.581l-6.902-2.301l-0.389-12.354l6.799,2.487
			L181.822,124.581z M180.765,98.455l-6.685-2.695l-0.363-11.522l6.588,2.859L180.765,98.455z M202.338,185.957l-6.621-1.162
			l-0.743-13.654l6.526,1.4L202.338,185.957z M200.545,157.16l-6.42-1.661l-0.691-12.713l6.332,1.863L200.545,157.16z
			 M198.871,130.292l-6.229-2.087l-0.644-11.864l6.146,2.26L198.871,130.292z M197.309,105.168l-6.051-2.455l-0.604-11.099
			l5.972,2.604L197.309,105.168z"/>
	</g>
	<g>
		<path fill="#FFFFFF" d="M215.49,246.174h7.468V95.823l-16.794,10.579L215.49,246.174z M214.143,106.85l5.412-3.343l-0.041,8.647
			l-5.479,3.177L214.143,106.85z M213.905,125.669l5.556-2.969l-0.045,9.126l-5.623,2.786L213.905,125.669z M213.656,145.519
			l5.705-2.55l-0.048,9.652l-5.777,2.339L213.656,145.519z M219.254,164.41l-0.051,10.221l-5.938,1.84l0.125-9.984L219.254,164.41z"
			/>
		<path fill="#B7DFF7" d="M258.186,113.931l-34.787-18.108v150.351h43.586L258.186,113.931z M226.397,102.669l5.339,2.562
			l0.133,8.089l-5.424-2.452L226.397,102.669z M226.508,120.951l5.523,2.313l0.143,8.675l-5.615-2.187L226.508,120.951z
			 M226.623,140.588l5.722,2.023l0.152,9.322l-5.818-1.872L226.623,140.588z M226.748,161.744l5.937,1.676l0.164,10.045l-6.04-1.5
			L226.748,161.744z M226.949,195.659l-0.064-11.068l6.166,1.272l0.179,10.856L226.949,195.659z M239.723,109.279l4.697,2.333
			l0.316,7.813l-4.763-2.231L239.723,109.279z M240.281,126.916l4.842,2.099l0.34,8.351l-4.914-1.983L240.281,126.916z
			 M240.879,145.796l4.998,1.828l0.361,8.941l-5.072-1.688L240.879,145.796z M241.52,166.055l5.164,1.514l0.389,9.602l-5.246-1.35
			L241.52,166.055z M242.539,198.383l-0.332-10.528l5.346,1.142l0.418,10.336L242.539,198.383z M251.807,115.305l4.268,2.136
			l0.47,7.551l-4.321-2.036L251.807,115.305z M252.73,132.335l4.389,1.915l0.503,8.048l-4.448-1.803L252.73,132.335z
			 M253.719,150.51l4.518,1.664l0.534,8.592l-4.581-1.535L253.719,150.51z M254.774,169.949l4.651,1.37l0.572,9.194l-4.717-1.22
			L254.774,169.949z M255.905,190.79l4.794,1.03l0.615,9.861l-4.863-0.855L255.905,190.79z"/>
	</g>
	<g>
		<path fill="#B7DFF7" d="M94.053,106.402L77.479,95.823v150.351h7.031L94.053,106.402z M85.961,115.332l-5.477-3.177l-0.042-8.647
			l5.414,3.343L85.961,115.332z M86.205,134.612l-5.621-2.786l-0.047-9.126l5.556,2.969L86.205,134.612z M86.462,154.96
			l-5.776-2.339l-0.05-9.652l5.706,2.55L86.462,154.96z M86.607,166.486l0.127,9.984l-5.938-1.84l-0.05-10.221L86.607,166.486z"/>
		<path fill="#FFFFFF" d="M33.016,246.174h44.023V95.823l-35.007,18.108L33.016,246.174z M73.553,110.868l-5.423,2.452l0.132-8.089
			l5.339-2.562L73.553,110.868z M73.441,129.751l-5.615,2.187l0.141-8.675l5.525-2.313L73.441,129.751z M73.318,150.062
			l-5.818,1.872l0.152-9.322l5.725-2.023L73.318,150.062z M73.191,171.965l-6.041,1.5l0.164-10.045l5.936-1.676L73.191,171.965z
			 M66.771,196.72l0.177-10.856l6.167-1.272l-0.066,11.068L66.771,196.72z M60.023,117.195l-4.761,2.231l0.318-7.813l4.693-2.333
			L60.023,117.195z M59.449,135.382l-4.912,1.983l0.34-8.351l4.838-2.099L59.449,135.382z M58.834,154.877l-5.073,1.688l0.362-8.941
			l4.997-1.828L58.834,154.877z M58.172,175.82l-5.246,1.35l0.388-9.602l5.165-1.514L58.172,175.82z M52.03,199.332l0.417-10.336
			l5.344-1.142l-0.333,10.528L52.03,199.332z M47.777,122.956l-4.323,2.036l0.47-7.551l4.269-2.136L47.777,122.956z M46.827,140.495
			l-4.449,1.803l0.501-8.048l4.389-1.915L46.827,140.495z M45.807,159.23l-4.578,1.535l0.535-8.592l4.518-1.664L45.807,159.23z
			 M44.717,179.294L40,180.514l0.57-9.194l4.655-1.37L44.717,179.294z M43.547,200.826l-4.865,0.855l0.614-9.861l4.796-1.03
			L43.547,200.826z"/>
	</g>
	<g>
		<path fill="#8A4096" d="M104.751,77.971c1.052-0.489,1.575-0.315,1.575,0.524c0,0.229-0.026,0.428-0.079,0.593
			c-0.056,0.171-0.157,0.376-0.309,0.625c-0.13,0.217-0.217,0.46-0.25,0.731c-0.035,0.272-0.051,0.792-0.051,1.567
			c0,0.457,0.041,0.716,0.13,0.779c0.051,0.042,0.129,0.044,0.23,0.01c0.101-0.032,0.346-0.142,0.725-0.319
			c0.346-0.161,0.561-0.296,0.645-0.409c0.083-0.107,0.129-0.309,0.129-0.596c0-0.857-0.022-1.449-0.062-1.768
			c-0.04-0.321-0.122-0.514-0.237-0.583c-0.146-0.095-0.245-0.188-0.293-0.278s-0.07-0.231-0.07-0.422
			c0-0.267,0.053-0.535,0.157-0.801s0.239-0.478,0.409-0.634c0.347-0.327,0.79-0.612,1.318-0.858
			c0.617-0.289,1.075-0.393,1.37-0.312s0.441,0.353,0.441,0.816c0,0.39-0.105,0.732-0.312,1.025
			c-0.132,0.177-0.218,0.331-0.258,0.454c-0.042,0.13-0.073,0.341-0.097,0.645c-0.015,0.17-0.029,0.902-0.051,2.193
			c-0.019,1.295-0.029,2.319-0.029,3.075c0,1.32,0.025,2.147,0.076,2.484c0.025,0.179,0.056,0.299,0.091,0.347
			c0.034,0.048,0.139,0.129,0.318,0.242c0.127,0.076,0.192,0.255,0.192,0.535c0,0.495-0.154,0.927-0.457,1.293
			c-0.306,0.368-0.795,0.709-1.481,1.03c-0.599,0.278-1.044,0.371-1.329,0.275c-0.261-0.088-0.39-0.349-0.39-0.787
			c0-0.372,0.1-0.706,0.3-1.006c0.095-0.148,0.163-0.287,0.198-0.407s0.07-0.327,0.104-0.624c0.062-0.576,0.092-1.26,0.092-2.052
			c0-0.41-0.032-0.653-0.094-0.719c-0.063-0.07-0.224-0.042-0.489,0.082c-0.599,0.28-0.986,0.523-1.151,0.732
			c-0.066,0.079-0.108,0.253-0.125,0.516c-0.022,0.325-0.032,0.713-0.032,1.166c0,0.743,0.057,1.251,0.163,1.531
			c0.038,0.082,0.126,0.176,0.264,0.272c0.141,0.092,0.212,0.315,0.212,0.672c0,0.457-0.164,0.885-0.489,1.273
			c-0.33,0.396-0.795,0.735-1.4,1.017c-0.552,0.258-1.002,0.357-1.352,0.297c-0.152-0.028-0.272-0.108-0.357-0.249
			c-0.085-0.136-0.129-0.315-0.129-0.527c0-0.217,0.028-0.397,0.082-0.539c0.053-0.142,0.171-0.347,0.354-0.614
			c0.094-0.135,0.158-0.283,0.198-0.442c0.038-0.16,0.066-0.417,0.089-0.766c0.05-0.785,0.075-1.794,0.075-3.025
			c0-0.226,0-0.498-0.006-0.807c-0.012-1.557-0.019-2.443-0.019-2.666c0.001-0.562-0.021-0.921-0.075-1.075
			c-0.051-0.155-0.189-0.287-0.41-0.401c-0.148-0.067-0.223-0.237-0.223-0.51c0-0.655,0.328-1.269,0.99-1.83
			C103.953,78.417,104.347,78.16,104.751,77.971z"/>
		<path fill="#8A4096" d="M115.38,72.274c0.908-0.425,1.704-0.294,2.383,0.397c0.46,0.475,0.835,1.2,1.122,2.168
			c0.28,0.964,0.417,1.998,0.417,3.091c0,1.617-0.277,3.189-0.828,4.723c-0.467,1.298-1.078,2.361-1.833,3.185
			c-0.463,0.504-0.929,0.866-1.396,1.081c-0.614,0.287-1.2,0.312-1.759,0.081c-0.674-0.28-1.203-0.933-1.586-1.96
			c-0.369-0.993-0.557-2.188-0.557-3.593c0-1.629,0.24-3.179,0.716-4.648c0.426-1.308,0.998-2.391,1.715-3.245
			C114.258,72.971,114.792,72.546,115.38,72.274z M114.875,75.454c-0.296,0.138-0.53,0.505-0.705,1.1
			c-0.135,0.445-0.202,0.932-0.202,1.459c0,0.775,0.079,1.635,0.245,2.575c0.163,0.939,0.366,1.748,0.615,2.42
			c0.11,0.283,0.246,0.485,0.404,0.611c0.163,0.122,0.327,0.144,0.494,0.067c0.268-0.126,0.485-0.419,0.649-0.889
			c0.164-0.463,0.249-1.018,0.249-1.657c0-0.828-0.07-1.689-0.209-2.584c-0.138-0.894-0.318-1.627-0.536-2.205
			c-0.133-0.354-0.29-0.611-0.467-0.766C115.233,75.428,115.055,75.385,114.875,75.454z"/>
		<path fill="#8A4096" d="M122.07,68.537l2.915-1.361c0.313-0.168,0.599-0.382,0.858-0.643c0.11-0.111,0.208-0.185,0.294-0.224
			c0.296-0.139,0.587,0.154,0.87,0.876c0.283,0.727,0.422,1.542,0.422,2.451c0,0.618-0.097,1.119-0.292,1.496
			c-0.148,0.28-0.324,0.47-0.532,0.565c-0.196,0.091-0.366,0.069-0.508-0.079c-0.145-0.139-0.287-0.42-0.426-0.844
			c-0.122-0.384-0.218-0.625-0.287-0.732c-0.072-0.101-0.157-0.13-0.255-0.085c-0.138,0.066-0.236,0.223-0.294,0.467
			c-0.059,0.25-0.086,0.625-0.086,1.134v5.996c0,0.612,0.032,1.043,0.095,1.293c0.069,0.245,0.196,0.4,0.378,0.464
			c0.201,0.073,0.335,0.164,0.407,0.275c0.073,0.114,0.108,0.299,0.108,0.554c0,0.516-0.18,0.98-0.539,1.399
			c-0.359,0.416-0.914,0.8-1.658,1.147c-0.914,0.426-1.592,0.596-2.036,0.513c-0.371-0.073-0.558-0.378-0.558-0.92
			c0-0.29,0.066-0.552,0.199-0.776c0.032-0.048,0.166-0.199,0.391-0.441c0.142-0.145,0.239-0.34,0.292-0.586
			c0.054-0.243,0.098-0.691,0.132-1.333c0.029-0.571,0.056-1.485,0.081-2.739c0.026-1.261,0.04-2.345,0.04-3.258
			c0-0.642-0.025-1.087-0.078-1.334c-0.051-0.248-0.136-0.344-0.255-0.29c-0.144,0.069-0.281,0.335-0.419,0.798
			c-0.248,0.842-0.45,1.419-0.609,1.729c-0.188,0.366-0.369,0.589-0.548,0.674c-0.198,0.092-0.362,0.021-0.491-0.204
			c-0.132-0.229-0.195-0.57-0.195-1.018c0-0.441,0.053-0.955,0.155-1.535c0.104-0.58,0.24-1.134,0.415-1.667
			c0.28-0.855,0.558-1.351,0.829-1.477c0.075-0.034,0.16-0.051,0.255-0.054c0.199-0.015,0.363-0.037,0.489-0.066
			C121.756,68.669,121.903,68.615,122.07,68.537z"/>
		<path fill="#8A4096" d="M128.87,64.441l3.026-1.409c0.612-0.286,1.058-0.519,1.339-0.7c0.281-0.177,0.555-0.406,0.822-0.683
			c0.081-0.082,0.146-0.138,0.193-0.158c0.205-0.097,0.384,0.032,0.543,0.385c0.259,0.57,0.387,1.346,0.387,2.326
			c0,0.491-0.053,0.905-0.161,1.242c-0.107,0.334-0.256,0.545-0.447,0.634c-0.126,0.06-0.229,0.053-0.3-0.01
			c-0.072-0.076-0.171-0.258-0.29-0.558c-0.174-0.426-0.393-0.665-0.658-0.71c-0.267-0.047-0.7,0.07-1.304,0.352
			c-0.45,0.212-0.727,0.492-0.825,0.85c-0.051,0.189-0.082,0.431-0.091,0.713c-0.01,0.29-0.015,1.005-0.015,2.161
			c0,0.454,0.04,0.721,0.116,0.795c0.078,0.073,0.286,0.029,0.621-0.125c0.163-0.076,0.281-0.198,0.357-0.366
			c0.075-0.17,0.119-0.426,0.141-0.779c0.028-0.454,0.056-0.768,0.086-0.946c0.029-0.174,0.082-0.341,0.161-0.501
			c0.083-0.176,0.179-0.286,0.289-0.337c0.163-0.076,0.299,0.007,0.412,0.25c0.083,0.179,0.152,0.538,0.209,1.071
			c0.059,0.53,0.085,1.1,0.085,1.707c0,1.2-0.095,2.228-0.289,3.088c-0.107,0.464-0.265,0.749-0.483,0.85
			c-0.132,0.063-0.224,0.038-0.275-0.07c-0.053-0.108-0.089-0.368-0.119-0.772c-0.057-0.829-0.318-1.137-0.775-0.924
			c-0.179,0.082-0.3,0.248-0.365,0.491c-0.064,0.249-0.095,0.664-0.095,1.251c0,0.356,0.012,0.81,0.038,1.365
			c0.023,0.555,0.053,0.913,0.079,1.084c0.032,0.212,0.127,0.325,0.29,0.335c0.166,0.013,0.437-0.067,0.817-0.246
			c0.587-0.275,1.033-0.63,1.33-1.061c0.297-0.434,0.542-1.074,0.731-1.932c0.108-0.489,0.207-0.832,0.297-1.024
			c0.088-0.193,0.204-0.324,0.344-0.39c0.164-0.076,0.3,0,0.409,0.226c0.108,0.224,0.161,0.551,0.161,0.967
			c0,0.457-0.06,1.056-0.183,1.794c-0.12,0.74-0.268,1.415-0.445,2.032c-0.092,0.299-0.164,0.507-0.224,0.621
			c-0.06,0.117-0.135,0.193-0.223,0.236c-0.076,0.035-0.185,0.062-0.325,0.083c-0.252,0.025-0.587,0.126-1.008,0.297l-4.992,2.329
			c-0.201,0.092-0.354,0.078-0.466-0.04s-0.166-0.337-0.166-0.646c0-0.22,0.025-0.391,0.073-0.511
			c0.047-0.123,0.154-0.3,0.322-0.526c0.12-0.158,0.205-0.318,0.262-0.489c0.056-0.167,0.101-0.406,0.132-0.7
			c0.129-1.206,0.193-2.78,0.193-4.726c0-2.931-0.091-4.736-0.28-5.414c-0.041-0.133-0.082-0.22-0.132-0.262
			c-0.047-0.034-0.144-0.063-0.294-0.078c-0.223-0.023-0.334-0.258-0.334-0.708c0-0.245,0.035-0.479,0.111-0.703
			c0.075-0.223,0.173-0.396,0.296-0.514C128.131,64.821,128.429,64.649,128.87,64.441z"/>
		<path fill="#8A4096" d="M140.055,63.445v5.616c0,1.263,0.056,2.054,0.17,2.369c0.139,0.365,0.434,0.447,0.879,0.239
			c0.48-0.223,0.86-0.606,1.14-1.146c0.278-0.538,0.473-1.264,0.583-2.18c0.062-0.557,0.207-0.891,0.428-0.995
			c0.226-0.104,0.406,0.006,0.548,0.324c0.142,0.325,0.212,0.795,0.212,1.414c0,1.015-0.195,2.184-0.582,3.513
			c-0.123,0.428-0.229,0.725-0.324,0.904c-0.092,0.179-0.202,0.299-0.335,0.36l-1.405,0.322l-4.419,2.061
			c-0.293,0.136-0.497,0.17-0.614,0.091c-0.173-0.107-0.259-0.344-0.259-0.722c0-0.227,0.025-0.41,0.086-0.549
			c0.053-0.136,0.192-0.354,0.415-0.662c0.24-0.334,0.393-0.713,0.458-1.144c0.056-0.362,0.082-1.349,0.082-2.963
			c0-0.753-0.01-1.827-0.029-3.23c-0.022-1.343-0.034-2.355-0.037-3.04c0-0.655-0.026-1.085-0.079-1.305
			c-0.054-0.215-0.166-0.337-0.333-0.363c-0.278-0.06-0.457-0.125-0.53-0.207c-0.138-0.142-0.205-0.343-0.205-0.605
			c0-0.596,0.255-1.165,0.766-1.709c0.434-0.472,1.017-0.883,1.746-1.225c0.819-0.382,1.43-0.58,1.833-0.606
			c0.523-0.026,0.784,0.294,0.784,0.954c0,0.271-0.032,0.485-0.103,0.649c-0.072,0.163-0.239,0.419-0.51,0.763
			c-0.16,0.217-0.261,0.497-0.303,0.854C140.077,61.579,140.055,62.319,140.055,63.445z"/>
	</g>
	<g>
		<path fill="#8A4096" d="M156.014,58.852c1.297,0.533,1.945,1.188,1.945,1.958c0,0.211-0.033,0.365-0.099,0.47
			c-0.069,0.103-0.196,0.202-0.38,0.289c-0.166,0.075-0.27,0.221-0.312,0.437c-0.042,0.22-0.064,0.677-0.064,1.39
			c0,0.419,0.054,0.7,0.164,0.839c0.062,0.088,0.153,0.161,0.281,0.224c0.126,0.062,0.425,0.193,0.892,0.388
			c0.432,0.173,0.696,0.25,0.799,0.227c0.104-0.025,0.156-0.167,0.156-0.429c0-0.791-0.025-1.354-0.074-1.685
			c-0.05-0.333-0.148-0.583-0.295-0.763c-0.18-0.22-0.301-0.397-0.359-0.524s-0.087-0.28-0.087-0.456
			c0-0.243,0.064-0.439,0.193-0.59c0.128-0.148,0.299-0.217,0.505-0.202c0.432,0.031,0.975,0.177,1.627,0.441
			c0.762,0.321,1.326,0.647,1.689,0.998c0.363,0.346,0.547,0.735,0.547,1.162c0,0.359-0.131,0.574-0.389,0.649
			c-0.159,0.04-0.268,0.101-0.317,0.179c-0.047,0.083-0.088,0.243-0.12,0.507c-0.016,0.144-0.038,0.8-0.061,1.972
			c-0.024,1.165-0.036,2.098-0.036,2.792c0,1.216,0.029,2.002,0.093,2.354c0.03,0.199,0.072,0.331,0.112,0.407
			c0.041,0.078,0.171,0.25,0.393,0.521c0.159,0.19,0.237,0.413,0.237,0.671c0,0.456-0.19,0.71-0.565,0.76
			c-0.374,0.051-0.983-0.092-1.828-0.437c-0.739-0.305-1.284-0.636-1.638-0.989c-0.319-0.321-0.479-0.683-0.479-1.084
			c0-0.341,0.121-0.56,0.365-0.649c0.121-0.05,0.203-0.107,0.248-0.192c0.044-0.076,0.085-0.231,0.127-0.472
			c0.074-0.472,0.111-1.074,0.111-1.805c0-0.378-0.037-0.627-0.115-0.747c-0.078-0.123-0.278-0.249-0.602-0.382
			c-0.743-0.306-1.217-0.441-1.422-0.403c-0.078,0.016-0.133,0.135-0.153,0.356c-0.026,0.28-0.04,0.627-0.04,1.047
			c0,0.68,0.069,1.203,0.204,1.551c0.042,0.116,0.152,0.286,0.323,0.504c0.172,0.212,0.26,0.486,0.26,0.814
			c0,0.42-0.201,0.662-0.604,0.715c-0.402,0.056-0.979-0.066-1.726-0.375c-0.683-0.28-1.239-0.606-1.669-0.986
			c-0.188-0.168-0.335-0.356-0.441-0.562c-0.104-0.214-0.157-0.415-0.157-0.611c0-0.201,0.03-0.333,0.101-0.42
			c0.066-0.078,0.209-0.154,0.434-0.234c0.119-0.032,0.199-0.105,0.245-0.217c0.052-0.114,0.083-0.318,0.111-0.623
			c0.063-0.672,0.093-1.581,0.093-2.71c0-0.211-0.002-0.457-0.006-0.747c-0.016-1.447-0.023-2.266-0.023-2.473
			c0.002-0.516-0.029-0.87-0.092-1.053c-0.065-0.195-0.235-0.447-0.506-0.754c-0.186-0.204-0.275-0.426-0.275-0.675
			c0-0.606,0.408-0.863,1.221-0.759C155.029,58.523,155.516,58.652,156.014,58.852z"/>
		<path fill="#8A4096" d="M168.348,63.86c1.067,0.435,2,1.257,2.802,2.468c0.536,0.822,0.976,1.787,1.312,2.892
			c0.329,1.088,0.493,2.117,0.493,3.075c0,1.412-0.325,2.544-0.974,3.394c-0.549,0.716-1.265,1.102-2.148,1.159
			c-0.545,0.021-1.09-0.07-1.637-0.297c-0.719-0.294-1.41-0.794-2.064-1.49c-0.795-0.847-1.415-1.891-1.865-3.132
			c-0.435-1.197-0.651-2.408-0.651-3.637c0-1.424,0.281-2.565,0.841-3.425c0.496-0.766,1.17-1.206,2.01-1.311
			C167.033,63.473,167.658,63.576,168.348,63.86z M167.758,66.193c-0.352-0.142-0.628-0.029-0.828,0.334
			c-0.158,0.27-0.238,0.637-0.238,1.097c0,0.678,0.094,1.499,0.287,2.467c0.189,0.968,0.436,1.852,0.723,2.665
			c0.129,0.346,0.289,0.642,0.477,0.895c0.189,0.25,0.381,0.416,0.578,0.498c0.314,0.125,0.568,0.062,0.762-0.202
			c0.191-0.258,0.289-0.671,0.289-1.229c0-0.722-0.08-1.538-0.242-2.445c-0.161-0.901-0.372-1.707-0.63-2.401
			c-0.155-0.432-0.343-0.795-0.55-1.09C168.178,66.491,167.969,66.292,167.758,66.193z"/>
		<path fill="#8A4096" d="M175.826,68.013l3.029,1.247c0.326,0.114,0.623,0.173,0.891,0.173c0.115,0.003,0.215,0.022,0.305,0.057
			c0.311,0.127,0.609,0.584,0.906,1.368c0.293,0.781,0.438,1.525,0.438,2.227c0,0.482-0.102,0.79-0.303,0.927
			c-0.154,0.1-0.339,0.11-0.551,0.021c-0.204-0.083-0.38-0.236-0.531-0.461c-0.148-0.223-0.297-0.554-0.441-0.989
			c-0.128-0.396-0.227-0.656-0.299-0.795c-0.074-0.132-0.162-0.223-0.264-0.262c-0.145-0.057-0.245-0.019-0.307,0.133
			c-0.061,0.141-0.09,0.413-0.09,0.803v4.642c0,0.475,0.034,0.835,0.104,1.081c0.065,0.245,0.199,0.461,0.391,0.656
			c0.207,0.211,0.348,0.387,0.422,0.532s0.109,0.316,0.109,0.514c0,0.398-0.184,0.617-0.558,0.658
			c-0.375,0.041-0.949-0.098-1.722-0.417c-0.95-0.384-1.654-0.792-2.115-1.207c-0.388-0.347-0.581-0.728-0.581-1.148
			c0-0.224,0.07-0.375,0.208-0.445c0.033-0.013,0.172-0.021,0.408-0.029c0.145-0.003,0.245-0.073,0.303-0.229
			c0.054-0.144,0.101-0.456,0.135-0.927c0.029-0.419,0.059-1.104,0.084-2.057c0.028-0.955,0.04-1.786,0.04-2.489
			c0-0.498-0.026-0.864-0.081-1.094c-0.051-0.236-0.141-0.375-0.264-0.423c-0.147-0.064-0.294,0.034-0.435,0.28
			c-0.258,0.46-0.469,0.751-0.633,0.864c-0.196,0.133-0.386,0.164-0.568,0.088c-0.21-0.085-0.378-0.265-0.511-0.543
			c-0.135-0.281-0.203-0.592-0.203-0.94c0-0.343,0.055-0.699,0.162-1.063c0.109-0.371,0.25-0.693,0.43-0.965
			c0.293-0.442,0.58-0.609,0.863-0.494c0.076,0.035,0.164,0.085,0.264,0.16c0.207,0.145,0.375,0.259,0.508,0.334
			C175.503,67.869,175.655,67.942,175.826,68.013z"/>
		<path fill="#8A4096" d="M182.763,71.498l2.848,1.166c0.575,0.237,0.995,0.393,1.259,0.464c0.262,0.07,0.521,0.107,0.771,0.103
			c0.078,0.001,0.139,0.012,0.18,0.029c0.198,0.079,0.365,0.297,0.515,0.653c0.243,0.586,0.363,1.223,0.363,1.91
			c0,0.347-0.048,0.595-0.147,0.757c-0.107,0.158-0.248,0.198-0.421,0.126c-0.123-0.051-0.217-0.126-0.286-0.224
			c-0.07-0.103-0.16-0.299-0.273-0.598c-0.164-0.423-0.371-0.744-0.618-0.967c-0.247-0.221-0.656-0.447-1.226-0.683
			c-0.424-0.177-0.684-0.17-0.775,0.013c-0.05,0.092-0.078,0.239-0.086,0.432c-0.012,0.195-0.017,0.694-0.017,1.504
			c0,0.319,0.038,0.533,0.111,0.64c0.075,0.104,0.271,0.224,0.58,0.353c0.158,0.063,0.271,0.062,0.34,0
			c0.071-0.066,0.116-0.212,0.135-0.445c0.022-0.297,0.052-0.501,0.079-0.599c0.029-0.107,0.078-0.183,0.152-0.24
			c0.078-0.063,0.168-0.07,0.272-0.034c0.151,0.063,0.28,0.223,0.386,0.47c0.076,0.189,0.145,0.483,0.199,0.902
			c0.053,0.41,0.078,0.831,0.078,1.258c0,0.839-0.09,1.493-0.271,1.958c-0.1,0.249-0.251,0.331-0.455,0.249
			c-0.123-0.051-0.211-0.132-0.259-0.246s-0.085-0.318-0.111-0.625c-0.054-0.624-0.299-1.021-0.729-1.198
			c-0.166-0.072-0.281-0.042-0.342,0.089c-0.06,0.12-0.09,0.391-0.09,0.801c0,0.249,0.01,0.579,0.036,0.984
			c0.023,0.406,0.048,0.681,0.071,0.817c0.031,0.173,0.122,0.319,0.277,0.445c0.15,0.122,0.407,0.258,0.766,0.406
			c0.556,0.226,0.972,0.296,1.252,0.205c0.282-0.088,0.511-0.369,0.686-0.832c0.105-0.265,0.197-0.434,0.279-0.51
			c0.084-0.072,0.19-0.078,0.325-0.025c0.155,0.063,0.284,0.211,0.384,0.448c0.103,0.237,0.155,0.498,0.155,0.792
			c0,0.318-0.059,0.697-0.173,1.129c-0.115,0.432-0.254,0.8-0.42,1.1c-0.087,0.149-0.157,0.239-0.213,0.284
			c-0.056,0.032-0.126,0.035-0.209,0c-0.068-0.025-0.17-0.083-0.304-0.173c-0.237-0.158-0.552-0.33-0.948-0.505l-4.697-1.923
			c-0.186-0.082-0.334-0.199-0.437-0.357c-0.101-0.168-0.153-0.352-0.153-0.574c0-0.152,0.023-0.258,0.064-0.306
			c0.047-0.053,0.148-0.101,0.306-0.142c0.111-0.022,0.192-0.073,0.246-0.151c0.052-0.081,0.095-0.215,0.126-0.398
			c0.12-0.753,0.184-1.812,0.184-3.174c0-2.054-0.09-3.39-0.268-3.993c-0.036-0.123-0.077-0.214-0.123-0.277
			c-0.043-0.062-0.136-0.149-0.276-0.267c-0.21-0.176-0.315-0.423-0.315-0.738c0-0.168,0.034-0.305,0.105-0.407
			c0.069-0.107,0.164-0.158,0.277-0.155C182.071,71.235,182.352,71.329,182.763,71.498z"/>
		<path fill="#8A4096" d="M193.011,79.189v3.667c0,0.826,0.052,1.37,0.151,1.657c0.124,0.33,0.379,0.576,0.77,0.737
			c0.424,0.171,0.754,0.174,0.998,0.006c0.243-0.164,0.413-0.511,0.51-1.036c0.056-0.318,0.18-0.444,0.375-0.363
			c0.196,0.082,0.354,0.268,0.478,0.574c0.126,0.306,0.187,0.656,0.187,1.058c0,0.665-0.17,1.304-0.508,1.915
			c-0.107,0.192-0.201,0.318-0.285,0.375c-0.079,0.056-0.179,0.06-0.293,0.009l-1.228-0.718l-3.87-1.585
			c-0.255-0.108-0.432-0.22-0.537-0.349c-0.151-0.185-0.228-0.4-0.228-0.646c0-0.148,0.024-0.249,0.071-0.3
			c0.052-0.054,0.174-0.104,0.367-0.158c0.211-0.054,0.344-0.207,0.404-0.438c0.048-0.201,0.068-0.826,0.068-1.879
			c0-0.492-0.009-1.201-0.025-2.13c-0.019-0.891-0.029-1.564-0.031-2.008c0-0.428-0.023-0.728-0.072-0.904
			c-0.045-0.177-0.144-0.328-0.29-0.454c-0.243-0.229-0.397-0.388-0.466-0.489c-0.117-0.18-0.178-0.362-0.178-0.53
			c0-0.39,0.223-0.592,0.672-0.611c0.379-0.019,0.889,0.101,1.529,0.363c0.715,0.293,1.25,0.567,1.605,0.816
			c0.457,0.333,0.687,0.715,0.687,1.146c0,0.176-0.032,0.293-0.094,0.356c-0.06,0.057-0.208,0.11-0.445,0.16
			c-0.142,0.032-0.228,0.148-0.265,0.352C193.033,77.982,193.011,78.456,193.011,79.189z"/>
	</g>
</g>
</svg>
