<?xml version="1.0" encoding="utf-8"?>
<!-- Generator: Adobe Illustrator 16.0.0, SVG Export Plug-In . SVG Version: 6.00 Build 0)  -->
<!DOCTYPE svg PUBLIC "-//W3C//DTD SVG 1.1//EN" "http://www.w3.org/Graphics/SVG/1.1/DTD/svg11.dtd">
<svg version="1.1" id="Layer_1" xmlns="http://www.w3.org/2000/svg" xmlns:xlink="http://www.w3.org/1999/xlink" x="0px" y="0px"
	 width="300px" height="300px" viewBox="0 0 300 300" enable-background="new 0 0 300 300" xml:space="preserve">
<path fill-rule="evenodd" clip-rule="evenodd" fill="#AA4499" d="M300,255c0,24.853-20.147,45-45,45H45c-24.853,0-45-20.147-45-45
	V45C0,20.147,20.147,0,45,0h210c24.853,0,45,20.147,45,45V255z"/>
<path fill="#FFFFFF" d="M73.679,165.943v77.338h50.88V183.92h50.883v59.361h50.88v-77.338l-76.318-76.264L73.679,165.943z
	 M217.843,124.501v-59.3h-33.92v25.406l-33.92-33.889L48.24,158.39v0.183l8.906,8.9L150.003,74.7l92.851,92.773l8.906-8.9v-0.183
	L217.843,124.501z"/>
<path fill="#FBB416" d="M217.843,124.501v-59.3h-33.92v25.406l-33.92-33.889L48.24,158.39v0.183l8.906,8.9L150.003,74.7
	l92.851,92.773l8.906-8.9v-0.183L217.843,124.501z M217.843,124.501v-59.3h-33.92v25.406l-33.92-33.889L48.24,158.39v0.183
	l8.906,8.9L150.003,74.7l92.851,92.773l8.906-8.9v-0.183L217.843,124.501z"/>
<g>
	<g>
		<rect x="185.941" y="195.909" fill-rule="evenodd" clip-rule="evenodd" fill="#55C7E9" width="14.405" height="14.406"/>
	</g>
	<rect x="202.931" y="195.909" fill-rule="evenodd" clip-rule="evenodd" fill="#55C7E9" width="14.405" height="14.406"/>
</g>
<g>
	<g>
		<rect x="185.941" y="213.753" fill-rule="evenodd" clip-rule="evenodd" fill="#55C7E9" width="14.405" height="14.405"/>
	</g>
	<rect x="202.931" y="213.753" fill-rule="evenodd" clip-rule="evenodd" fill="#55C7E9" width="14.405" height="14.405"/>
</g>
<g>
	<g>
		<rect x="82.929" y="195.909" fill-rule="evenodd" clip-rule="evenodd" fill="#55C7E9" width="14.405" height="14.406"/>
	</g>
	<rect x="99.918" y="195.909" fill-rule="evenodd" clip-rule="evenodd" fill="#55C7E9" width="14.405" height="14.406"/>
</g>
<g>
	<g>
		<rect x="82.929" y="213.753" fill-rule="evenodd" clip-rule="evenodd" fill="#55C7E9" width="14.405" height="14.405"/>
	</g>
	<rect x="99.918" y="213.753" fill-rule="evenodd" clip-rule="evenodd" fill="#55C7E9" width="14.405" height="14.405"/>
</g>
</svg>
