<?xml version="1.0" encoding="utf-8"?>
<!-- Generator: Adobe Illustrator 16.0.0, SVG Export Plug-In . SVG Version: 6.00 Build 0)  -->
<!DOCTYPE svg PUBLIC "-//W3C//DTD SVG 1.1//EN" "http://www.w3.org/Graphics/SVG/1.1/DTD/svg11.dtd">
<svg version="1.1" id="Layer_1" xmlns="http://www.w3.org/2000/svg" xmlns:xlink="http://www.w3.org/1999/xlink" x="0px" y="0px"
	 width="300px" height="300px" viewBox="0 0 300 300" enable-background="new 0 0 300 300" xml:space="preserve">
<path fill-rule="evenodd" clip-rule="evenodd" fill="#FFCB62" d="M300,255c0,24.853-20.147,45-45,45H45c-24.853,0-45-20.147-45-45
	V45C0,20.147,20.147,0,45,0h210c24.853,0,45,20.147,45,45V255z"/>
<g>
	<path fill-rule="evenodd" clip-rule="evenodd" fill="#1771B9" d="M257.909,247.633c0,12.838-10.981,23.248-24.526,23.248H66.618
		c-13.545,0-24.526-10.41-24.526-23.248V52.367c0-12.839,10.98-23.247,24.526-23.247h166.765c13.545,0,24.526,10.408,24.526,23.247
		V247.633z"/>
	<g>
		<g>
			<rect x="77.027" y="226.072" fill="#2AB8A3" width="77.168" height="4.502"/>
			<rect x="77.027" y="216.57" fill="#2AB8A3" width="77.168" height="4.471"/>
			<path fill="#FFFFFF" d="M169.633,159.583l-1.834-8.757c-1.438-6.869-8.062-12.246-15.076-12.246H78.144
				c-7.015,0-13.636,5.377-15.078,12.244l-1.837,8.758c-0.768,3.662,0.064,7.33,2.281,10.059c2.218,2.73,5.635,4.298,9.376,4.298
				h4.178l1.434-10.289h-5.612c-0.637,0-1.129-0.176-1.389-0.493c-0.259-0.318-0.33-0.838-0.196-1.463l1.835-8.758
				c0.438-2.09,2.871-4.068,5.007-4.068h74.579c2.137,0,4.568,1.978,5.008,4.066l1.834,8.759c0.131,0.624,0.06,1.143-0.199,1.464
				c-0.26,0.317-0.755,0.493-1.389,0.493h-5.242l1.435,10.289h3.808c3.74,0,7.156-1.567,9.376-4.298
				C169.568,166.912,170.4,163.244,169.633,159.583z"/>
			<path fill="#2AB8A3" d="M85.359,152.512l-8.332,58.914h77.168l-8.326-58.914H85.359z M125.054,190.211
				c-0.633,1.297-1.452,2.325-2.451,3.082c-0.999,0.754-2.438,1.328-4.318,1.719v5.412h-3.81v-5.289
				c-1.77-0.202-3.277-0.646-4.518-1.338c-1.705-0.944-3.286-2.203-4.745-3.766l3.854-3.957c2.468,2.637,4.862,3.957,7.173,3.957
				c1.178,0,2.184-0.41,3.028-1.229c0.845-0.818,1.264-1.78,1.264-2.891c0-0.932-0.268-1.749-0.806-2.451
				c-0.557-0.705-1.622-1.418-3.205-2.148c-3.214-1.485-5.391-2.663-6.527-3.536c-1.134-0.873-1.982-1.852-2.542-2.938
				c-0.561-1.087-0.841-2.248-0.841-3.478c0-2.039,0.743-3.786,2.228-5.238c1.49-1.452,3.366-2.233,5.635-2.341v-3.211h3.81v3.473
				c1.31,0.311,2.424,0.731,3.334,1.259c0.914,0.526,1.989,1.418,3.233,2.675l-3.913,3.812c-1.781-1.84-3.545-2.761-5.29-2.761
				c-1.027,0-1.86,0.274-2.5,0.821c-0.643,0.547-0.964,1.182-0.964,1.896c0,0.609,0.284,1.209,0.848,1.803
				c0.557,0.607,1.676,1.257,3.368,1.948c3,1.243,5.052,2.303,6.161,3.181c1.107,0.879,1.958,1.932,2.555,3.16
				c0.592,1.232,0.892,2.609,0.892,4.137S125.689,188.912,125.054,190.211z"/>
		</g>
		<text transform="matrix(1 0 0 1 96.9204 89.6582)" fill="#FFFFFF" font-family="'Myriad-Bold'" font-size="57.8655">ATM</text>
		<g>
			<g>
				<path fill="#F07293" d="M197.717,184.873c0,1.555-1.26,2.812-2.812,2.812h-11.246c-1.553,0-2.812-1.258-2.812-2.812v-6.184
					c0-1.553,1.26-2.812,2.812-2.812h11.246c1.553,0,2.812,1.259,2.812,2.812V184.873z"/>
				<path fill="#F07293" d="M217.965,184.873c0,1.555-1.26,2.812-2.812,2.812h-11.248c-1.554,0-2.812-1.258-2.812-2.812v-6.184
					c0-1.553,1.259-2.812,2.812-2.812h11.248c1.553,0,2.812,1.259,2.812,2.812V184.873z"/>
				<path fill="#F07293" d="M239.053,184.873c0,1.555-1.26,2.812-2.812,2.812h-11.248c-1.553,0-2.812-1.258-2.812-2.812v-6.184
					c0-1.553,1.26-2.812,2.812-2.812h11.248c1.553,0,2.812,1.259,2.812,2.812V184.873z"/>
			</g>
			<g>
				<path fill="#F07293" d="M197.717,199.309c0,1.554-1.26,2.812-2.812,2.812h-11.246c-1.553,0-2.812-1.259-2.812-2.812v-6.186
					c0-1.553,1.26-2.812,2.812-2.812h11.246c1.553,0,2.812,1.26,2.812,2.812V199.309z"/>
				<path fill="#F07293" d="M217.965,199.309c0,1.554-1.26,2.812-2.812,2.812h-11.248c-1.554,0-2.812-1.259-2.812-2.812v-6.186
					c0-1.553,1.259-2.812,2.812-2.812h11.248c1.553,0,2.812,1.26,2.812,2.812V199.309z"/>
				<path fill="#F07293" d="M239.053,199.309c0,1.554-1.26,2.812-2.812,2.812h-11.248c-1.553,0-2.812-1.259-2.812-2.812v-6.186
					c0-1.553,1.26-2.812,2.812-2.812h11.248c1.553,0,2.812,1.26,2.812,2.812V199.309z"/>
			</g>
			<g>
				<path fill="#F07293" d="M197.717,213.746c0,1.553-1.26,2.811-2.812,2.811h-11.246c-1.553,0-2.812-1.258-2.812-2.811v-6.187
					c0-1.554,1.26-2.812,2.812-2.812h11.246c1.553,0,2.812,1.259,2.812,2.812V213.746z"/>
				<path fill="#F07293" d="M217.965,213.746c0,1.553-1.26,2.811-2.812,2.811h-11.248c-1.554,0-2.812-1.258-2.812-2.811v-6.187
					c0-1.554,1.259-2.812,2.812-2.812h11.248c1.553,0,2.812,1.259,2.812,2.812V213.746z"/>
				<path fill="#F07293" d="M239.053,213.746c0,1.553-1.26,2.811-2.812,2.811h-11.248c-1.553,0-2.812-1.258-2.812-2.811v-6.187
					c0-1.554,1.26-2.812,2.812-2.812h11.248c1.553,0,2.812,1.259,2.812,2.812V213.746z"/>
			</g>
			<g>
				<path fill="#F07293" d="M197.717,228.179c0,1.553-1.26,2.812-2.812,2.812h-11.246c-1.553,0-2.812-1.26-2.812-2.812v-6.185
					c0-1.553,1.26-2.812,2.812-2.812h11.246c1.553,0,2.812,1.26,2.812,2.812V228.179z"/>
				<path fill="#F07293" d="M217.965,228.179c0,1.553-1.26,2.812-2.812,2.812h-11.248c-1.554,0-2.812-1.26-2.812-2.812v-6.185
					c0-1.553,1.259-2.812,2.812-2.812h11.248c1.553,0,2.812,1.26,2.812,2.812V228.179z"/>
				<path fill="#F07293" d="M239.053,228.179c0,1.553-1.26,2.812-2.812,2.812h-11.248c-1.553,0-2.812-1.26-2.812-2.812v-6.185
					c0-1.553,1.26-2.812,2.812-2.812h11.248c1.553,0,2.812,1.26,2.812,2.812V228.179z"/>
			</g>
		</g>
	</g>
</g>
</svg>
