<?xml version="1.0" encoding="utf-8"?>
<!-- Generator: Adobe Illustrator 16.0.0, SVG Export Plug-In . SVG Version: 6.00 Build 0)  -->
<!DOCTYPE svg PUBLIC "-//W3C//DTD SVG 1.1//EN" "http://www.w3.org/Graphics/SVG/1.1/DTD/svg11.dtd">
<svg version="1.1" xmlns="http://www.w3.org/2000/svg" xmlns:xlink="http://www.w3.org/1999/xlink" x="0px" y="0px"
	 width="640.943px" height="571.348px" viewBox="0 0 640.943 571.348" enable-background="new 0 0 640.943 571.348"
	 xml:space="preserve">
<g id="Layer_2">
	<g>
		<g>
			<g>
				<path fill="#F4EAB4" d="M441.958,30.299l-43.616-4.479c-3.119-0.321-6.001,2.857-6.437,7.098l-13.23,128.823
					c-0.435,4.24,1.742,7.937,4.861,8.257l22.928,2.355l-2.885,35.026l27.729-34.673c0.237-0.254,0.458-0.534,0.666-0.832
					l0.553-0.691l-0.092-0.049c0.597-1.079,1.01-2.356,1.153-3.753l13.229-128.822C447.252,34.316,445.077,30.619,441.958,30.299z"
					/>
			</g>
		</g>
		<g>
			<g>
				<g>
					<path fill="#F8E38E" d="M417.854,179.691l-27.255-64.418l-6.826,56.825l-30.744-3.157c-4.188-0.43-8.344,6.644-9.284,15.8
						l-28.567,278.177c-0.941,9.16,1.691,16.93,5.879,17.358l58.549,6.013c4.187,0.432,8.343-6.643,9.284-15.801l28.566-278.177
						c0.478-4.647,0.031-8.932-1.068-12.086L417.854,179.691z"/>
				</g>
			</g>
			<path fill="#F8E38E" d="M128.109,22.933c1.432-13.76,11.492-23.989,22.47-22.846l244.009,25.377
				c10.979,1.141,18.717,13.222,17.285,26.981L369.48,460.053c-1.43,13.758-11.49,23.984-22.469,22.842l-244.007-25.377
				c-10.979-1.139-18.719-13.221-17.288-26.98L128.109,22.933z"/>
		</g>
	</g>
	<g>
		<path fill="#EFEFEF" d="M581.761,126.912c-35.856-3.327-67.619,23.042-70.947,58.899l-8.99,96.914
			c-3.328,35.855,23.041,67.619,58.898,70.946c0.088,0.01,0.177,0.015,0.265,0.021c7.011-75.561,14.019-151.084,21.04-226.753
			C581.938,126.93,581.85,126.919,581.761,126.912z"/>
		<path fill="#CCCCCC" d="M582.027,126.938c-7.021,75.669-14.029,151.192-21.04,226.753c35.747,3.172,67.362-23.154,70.682-58.92
			l8.991-96.914C643.979,162.09,617.748,130.398,582.027,126.938z"/>
		<circle fill="#3A3A3A" cx="577.053" cy="182.826" r="6.299"/>
	</g>
</g>
<g id="Layer_4">
	<g>
		<path fill="#7B4F80" d="M428.492,496.078c1.551,8.857-5.182,17.435-15.037,19.158L94.529,571.043
			c-9.855,1.725-19.1-4.058-20.649-12.915L0.222,137.186c-1.55-8.857,5.182-17.435,15.037-19.159l318.927-55.807
			c9.854-1.725,19.1,4.058,20.648,12.915L428.492,496.078z"/>
		
			<rect x="63.335" y="115.985" transform="matrix(0.985 -0.1724 0.1724 0.985 -50.8804 41.5581)" fill="#FFFFFF" width="301.036" height="395.53"/>
		<path fill="#727373" d="M267.72,81.199c2.696,15.407-6.627,29.911-20.828,32.396L114.81,136.708
			c-14.199,2.484-27.895-7.992-30.591-23.399l-2.104-12.021c-2.696-15.408,6.628-29.912,20.828-32.396l132.083-23.112
			c14.2-2.485,27.895,7.991,30.591,23.398L267.72,81.199z"/>
		<path fill="none" stroke="#727373" stroke-width="24" stroke-miterlimit="10" d="M221.578,58.192c0,0-12.914-24.067-56.148-17.998
			l1.078-0.188C123.78,48.979,119.807,76,119.807,76"/>
	</g>
</g>
<g id="Layer_1">
	<g>
		
			<linearGradient id="SVGID_1_" gradientUnits="userSpaceOnUse" x1="145.3218" y1="473.8433" x2="90.2505" y2="378.457" gradientTransform="matrix(0.9838 -0.1795 0.1795 0.9838 -50.5231 59.8148)">
			<stop  offset="0" style="stop-color:#262262"/>
			<stop  offset="1" style="stop-color:#000036"/>
		</linearGradient>
		<polyline fill="url(#SVGID_1_)" points="95.113,425.333 109.536,504.835 188.282,490.713 173.73,410.503 		"/>
		
			<ellipse transform="matrix(0.9837 -0.1799 0.1799 0.9837 -72.7386 36.4228)" fill="#F2EBD1" cx="164.418" cy="419.195" rx="0.415" ry="0.399"/>
		
			<ellipse transform="matrix(0.9836 -0.1803 0.1803 0.9836 -77.7381 27.235)" fill="#F2EBD1" cx="110.915" cy="441.154" rx="0.414" ry="0.4"/>
		
			<ellipse transform="matrix(0.9839 -0.1789 0.1789 0.9839 -75.5807 26.081)" fill="#F2EBD1" cx="106.831" cy="432.142" rx="0.415" ry="0.399"/>
		
			<ellipse transform="matrix(0.9837 -0.18 0.18 0.9837 -75.5686 29.5999)" fill="#F2EBD1" cx="125.294" cy="431.14" rx="0.415" ry="0.401"/>
		<path fill="#F2EBD1" d="M137.993,428.905c0.04,0.219-0.111,0.427-0.336,0.47c-0.225,0.039-0.44-0.103-0.48-0.322
			c-0.039-0.216,0.111-0.424,0.337-0.467C137.738,428.545,137.953,428.687,137.993,428.905z"/>
		
			<ellipse transform="matrix(0.9839 -0.179 0.179 0.9839 -74.6363 33.8588)" fill="#F2EBD1" cx="150.322" cy="430.55" rx="0.415" ry="0.4"/>
		
			<ellipse transform="matrix(0.9837 -0.18 0.18 0.9837 -73.9836 34.9214)" fill="#F2EBD1" cx="155.405" cy="425.068" rx="0.415" ry="0.401"/>
		
			<ellipse transform="matrix(0.9837 -0.1798 0.1798 0.9837 -74.5952 30.5385)" fill="#F2EBD1" cx="131.15" cy="426.729" rx="0.415" ry="0.399"/>
		
			<ellipse transform="matrix(0.9839 -0.179 0.179 0.9839 -72.9803 33.2191)" fill="#F2EBD1" cx="147.604" cy="421.053" rx="0.415" ry="0.4"/>
		
			<ellipse transform="matrix(0.9843 -0.1766 0.1766 0.9843 -74.2498 27.1039)" fill="#F2EBD1" cx="115.141" cy="430.675" rx="0.415" ry="0.398"/>
		
			<ellipse transform="matrix(0.9835 -0.1811 0.1811 0.9835 -73.8165 36.6931)" fill="#F2EBD1" cx="164.076" cy="422.673" rx="0.415" ry="0.401"/>
		
			<ellipse transform="matrix(0.9842 -0.1768 0.1768 0.9842 -77.1427 25.5279)" fill="#F2EBD1" cx="104.671" cy="445.628" rx="0.414" ry="0.402"/>
		
			<ellipse transform="matrix(0.9836 -0.1801 0.1801 0.9836 -75.0055 36.4974)" fill="#F2EBD1" cx="163.459" cy="431.243" rx="0.415" ry="0.4"/>
		
			<ellipse transform="matrix(0.9834 -0.1814 0.1814 0.9834 -75.3053 29.457)" fill="#F2EBD1" cx="123.413" cy="426.483" rx="0.415" ry="0.4"/>
		<path fill="#F2EBD1" d="M104.176,437.434c0.04,0.216-0.11,0.426-0.335,0.465c-0.227,0.044-0.44-0.103-0.48-0.317
			c-0.039-0.216,0.112-0.427,0.336-0.469C103.922,437.073,104.137,437.214,104.176,437.434z"/>
		
			<ellipse transform="matrix(0.9841 -0.1776 0.1776 0.9841 -71.8236 34.5655)" fill="#F2EBD1" cx="157.119" cy="418.382" rx="0.415" ry="0.4"/>
		
			<ellipse transform="matrix(0.984 -0.178 0.178 0.984 -75.3443 30.6278)" fill="#F2EBD1" cx="133.067" cy="435.332" rx="0.414" ry="0.399"/>
		
			<ellipse transform="matrix(0.9834 -0.1814 0.1814 0.9834 -75.226 38.7013)" fill="#F2EBD1" cx="173.998" cy="430.671" rx="0.415" ry="0.4"/>
		<g>
			<path fill="#0F2546" d="M109.922,448.097c-0.352-1.932-2.204-3.212-4.136-2.86c-1.934,0.354-3.211,2.204-2.859,4.137
				L109.922,448.097z"/>
			<path fill="#0F2546" d="M134.408,443.631c-0.529-2.897-3.306-4.818-6.204-4.289c-2.898,0.528-4.818,3.305-4.288,6.202
				L134.408,443.631z"/>
			<path fill="#0F2546" d="M127.413,444.907c-1.058-5.795-6.613-9.637-12.409-8.579c-5.794,1.058-9.637,6.614-8.58,12.409
				L127.413,444.907z"/>
		</g>
		
			<ellipse transform="matrix(0.9839 -0.1788 0.1788 0.9839 -73.7895 32.7267)" fill="#F2EBD1" cx="144.684" cy="425.773" rx="0.415" ry="0.4"/>
		<path fill="#2F464A" d="M182.889,461.161c0.077,1.285-2.564,2.578-4.787,3.187c-2.626,0.72-5.361,0.612-7.908,0.636
			c-2.33,0.021-4.657,0.035-6.973,0.034c-0.254,0.608-1.698,1.227-2.603,1.604c-4.705,1.951-13.993,5.337-19.06,4.261
			c-0.318-0.065-2.99-1.193-3.033-1.182c-3.633,1.046-6.8,2.202-10.031,3.635c-2.825,1.253-5.564,2.043-8.696,1.687
			c-0.447-0.049-3.792-0.77-3.932-0.707c-9.269,4.023-11.186,3.895-11.186,3.895l2,10.966l78.701-14.36L182.889,461.161z"/>
		<polyline fill="#32253D" points="105.374,482.019 184.248,468.607 187.792,488.037 109.049,502.159 		"/>
		<path fill-rule="evenodd" clip-rule="evenodd" fill="#D8A02E" d="M169.743,437.444c1.84,0.4,3.192,2.409,4.34,3.721
			c8.937,10.204,8.601,34.215,3.135,45.721c-1.442,0.109-1.769-0.348-2.63-0.86c-0.866,0.861-1.448,1.558-2.781,0.903
			c-3.99-9.818-11.063-23.574-8.226-37.428C164.607,444.485,167.044,441.025,169.743,437.444z"/>
		<path fill-rule="evenodd" clip-rule="evenodd" fill="#2595AF" d="M150.797,440.573c1.841,0.4,3.192,2.412,4.341,3.724
			c8.936,10.204,8.601,34.215,3.133,45.721c-1.442,0.11-1.767-0.349-2.631-0.861c-0.864,0.859-1.445,1.56-2.779,0.903
			c-3.99-9.818-11.062-23.576-8.227-37.426C145.662,447.617,148.099,444.156,150.797,440.573z"/>
		<path fill-rule="evenodd" clip-rule="evenodd" fill="#B03C62" d="M129.803,444.888c1.87,0.225,3.407,2.096,4.676,3.291
			c9.871,9.304,11.832,33.236,7.492,45.211c-1.426,0.248-1.794-0.176-2.703-0.604c-0.778,0.941-1.29,1.688-2.68,1.167
			c-4.911-9.395-13.266-22.411-11.768-36.47C125.365,452.39,127.458,448.714,129.803,444.888z"/>
		<path fill-rule="evenodd" clip-rule="evenodd" fill="#E2B563" d="M169.958,439.008c1.793,0.407,3.114,2.42,4.235,3.734
			c8.729,10.224,8.463,34.227,3.168,45.716c-1.403,0.106-1.722-0.352-2.564-0.867c-0.839,0.859-1.404,1.556-2.704,0.898
			c-3.912-9.824-10.833-23.6-8.106-37.439C164.974,446.039,167.337,442.584,169.958,439.008z"/>
		<path fill-rule="evenodd" clip-rule="evenodd" fill="#49C0D3" d="M151.004,442.121c1.743,0.411,3.034,2.428,4.125,3.745
			c8.508,10.246,8.316,34.241,3.202,45.714c-1.362,0.102-1.672-0.358-2.492-0.876c-0.813,0.857-1.361,1.551-2.625,0.891
			c-3.827-9.834-10.589-23.62-7.977-37.451C146.183,449.136,148.47,445.688,151.004,442.121z"/>
		<path fill-rule="evenodd" clip-rule="evenodd" fill="#C9596E" d="M130.023,446.495c1.535,0.289,2.856,2.202,3.934,3.436
			c8.389,9.59,10.845,33.427,7.729,45.165c-1.153,0.195-1.47-0.24-2.226-0.699c-0.602,0.908-0.993,1.634-2.146,1.063
			c-4.343-9.502-11.626-22.729-10.906-36.635C126.669,453.789,128.248,450.209,130.023,446.495z"/>
		<polyline fill="#382D42" points="105.863,484.697 184.736,471.282 188.282,490.713 109.536,504.835 		"/>
		
			<ellipse transform="matrix(0.9838 -0.1794 0.1794 0.9838 -85.9097 34.6975)" fill="#1A1222" cx="148.831" cy="492.204" rx="23.316" ry="3.181"/>
		
			<ellipse transform="matrix(0.9838 -0.1795 0.1795 0.9838 -84.2581 39.5389)" fill="#1A1222" cx="176.374" cy="485.404" rx="10.12" ry="3.28"/>
		<g>
			<path fill="#84449A" d="M175.291,472.099l0.605-0.451c0.607,1.17,1.219,2.337,1.817,3.51c1.075,2.105,2.13,4.224,3.264,6.301
				c0.253,0.465,0.517,0.923,0.747,1.398c0.12,0.243,0.232,0.491,0.336,0.745c0.048,0.111,0.393,0.714,0.325,0.807
				c-0.11,0.149-0.517,0.323-0.685,0.435c-0.521,0.337-1.076,0.696-1.643,0.971c0.066-0.032-0.896-2.556-0.979-2.793
				c-0.35-1.008-0.7-2.017-1.05-3.026c-0.753-2.169-1.504-4.341-2.259-6.51C175.74,473.39,175.23,472.145,175.291,472.099z"/>
			<path fill="#84449A" d="M168.811,473.216c-0.07,1.344-0.138,2.688-0.206,4.032c-0.122,2.393-0.243,4.783-0.365,7.173
				c-0.054,1.05-0.232,2.172-0.154,3.219c0.69,0.099,1.602,0.087,2.293,0.005c0.065-1.075-0.148-2.228-0.225-3.297
				c-0.081-1.153-0.163-2.304-0.244-3.455c-0.15-2.122-0.303-4.245-0.451-6.365c-0.032-0.448-0.063-0.895-0.096-1.34
				L168.811,473.216z"/>
			<path fill="#4C2260" d="M172.241,473.197l0.716-0.261c0.295,0.868,0.587,1.739,0.88,2.611c0.57,1.69,1.141,3.379,1.709,5.07
				c0.408,1.211,1.007,2.463,1.244,3.717c-0.712,0.334-1.563,0.473-2.32,0.685c-0.768,0.217-0.627-1.086-0.703-1.536
				c-0.189-1.138-0.338-2.277-0.506-3.418c-0.28-1.888-0.561-3.773-0.842-5.664C172.409,474.321,172.17,473.225,172.241,473.197z"/>
			<g>
				
					<ellipse transform="matrix(0.9838 -0.1795 0.1795 0.9838 -81.8032 38.5433)" fill="#6B2C8D" cx="172.102" cy="471.343" rx="10.36" ry="2.118"/>
				
					<ellipse transform="matrix(0.9838 -0.1795 0.1795 0.9838 -81.5862 38.4642)" fill="#84449A" cx="171.808" cy="470.178" rx="10.28" ry="2.118"/>
			</g>
		</g>
		
			<ellipse transform="matrix(0.9838 -0.1794 0.1794 0.9838 -87.2833 30.3733)" fill="#1A1222" cx="124.245" cy="497.64" rx="12.16" ry="3.72"/>
		<g>
			<path fill="#624768" d="M145.352,480.981l1.119,6.138c-1.875,1.207-3.746,2.412-5.618,3.614c-0.945,0.608-1.89,1.217-2.836,1.821
				c-0.391,0.251-1.88,0.946-1.92,1.356c-0.046,0.489,0.827,1.078,1.436,0.717c0.699-0.413,1.407-0.841,2.104-1.267
				c1.692-1.039,3.467-2.026,5.205-3.022c0.125-0.07,1.201-0.59,1.201-0.701c-0.009,1.592-0.23,3.227,0.009,4.793
				c0.558,0.014,1.165-0.037,1.716-0.18c0.815-0.203,0.811-0.434,0.857-1.011c0.087-1.071,0.42-2.205,0.631-3.28
				c0.01-0.043,0.087-0.848,0.132-0.851c3.135-0.181,6.271-0.377,9.407-0.565c0.852-0.052,1.701-0.104,2.554-0.154
				c0.678-0.04,1.439-0.799,1.042-1.245c-0.37-0.416-1.525-0.289-2.14-0.28c-1.066,0.016-2.147,0.138-3.208,0.114
				c-2.014-0.049-4.028-0.099-6.041-0.146c-0.346-0.008-0.691-0.017-1.036-0.024l-1.844-7.062L145.352,480.981z"/>
			<path fill="#F2F2F2" d="M140.027,459.101c0,0-13.861,3.749-16.56,5.379c0,0-0.938,6.435-1.159,8.263
				c-0.271,2.243-1.653,4.398-1.376,6.663c0.302,2.478,2.993,3.365,4.849,5.063c0,0-1.843-4.622,0.449-5.447
				c0.499-0.18,2.434,0.2,3.049,0.241c1.196,0.085,2.379,0.202,3.497,0.482c1.533,0.383,2.685,1.406,4.321,1.608
				c1.289,0.164,3.371-1.013,4.1-0.024c0.726,0.985,1.477,1.274,2.694,1.931c0.938,0.504,1.659,1.217,2.079,2.034
				c0.574,1.114,1.434,1.396,3.103,0.863c0.121-0.038,0.335-1.44,0.381-1.564c0.24-0.653,0.911-1.243,1.094-1.878
				c0.098-0.338-0.093-0.806-0.137-1.138c-0.223-1.683,2.949-4.263,4.892-5.097c1.072-0.165,2.152-0.385,3.198-0.669
				c1.861-0.505,2.483-1.297,3.928-2.257c0.352-0.232,1.06,1.511,1.067,1.594c0.028,0.276,2.03,0.759,2.372,0.832
				c0.803,0.165,1.743,0.248,2.567-0.099c2.896-1.217,0.274-4.295-0.41-5.587c-1.33-2.519-3.012-4.935-4.57-7.361
				c-0.541-0.843-1.097-1.678-1.637-2.52c-0.228-0.355-1.144-2.501-1.588-2.56C155.564,457.243,143.572,458.454,140.027,459.101z"/>
			<path fill="#E9E9E9" d="M122.193,479.469c0,0,1.736-11.1,2.492-13.146c0.091-0.373,1.925-0.749,1.925-0.749
				S122.605,476.456,122.193,479.469z"/>
			<path fill="#E9E9E9" d="M143.61,465.563c0,0,3.091,10.288,3.136,12.304c0.064,0.354-1.969,1.187-1.969,1.187
				S144.522,468.34,143.61,465.563z"/>
			<path fill="#EAEAEA" d="M140.85,459.358c0,0-9.312,2.512-13.889,4.812l16.269-0.286l14.182-5.028
				C157.413,458.855,145.284,458.711,140.85,459.358z"/>
			<path fill="#E9E9E9" d="M167.877,473.31c0,0-9.583-9.568-10.725-11.671c-0.277-0.349,1.938-2.052,1.938-2.052
				S165.191,470.759,167.877,473.31z"/>
		</g>
		<g>
			<path fill="#84449A" d="M124.411,485.612l0.604-0.451c0.606,1.167,1.218,2.337,1.818,3.509c1.075,2.104,2.129,4.225,3.262,6.302
				c0.252,0.463,0.518,0.922,0.749,1.396c0.12,0.243,0.23,0.494,0.336,0.744c0.047,0.112,0.392,0.715,0.326,0.806
				c-0.111,0.152-0.519,0.328-0.686,0.435c-0.522,0.336-1.075,0.697-1.641,0.973c0.064-0.032-0.897-2.556-0.98-2.794
				c-0.349-1.008-0.7-2.016-1.049-3.025c-0.753-2.168-1.506-4.339-2.258-6.511C124.859,486.901,124.35,485.656,124.411,485.612z"/>
			<path fill="#84449A" d="M117.929,486.726c-0.068,1.346-0.136,2.689-0.206,4.035c-0.122,2.391-0.244,4.782-0.365,7.174
				c-0.053,1.049-0.231,2.169-0.154,3.215c0.691,0.099,1.602,0.087,2.293,0.006c0.064-1.073-0.148-2.227-0.223-3.3
				c-0.083-1.15-0.163-2.299-0.245-3.45c-0.151-2.121-0.301-4.246-0.452-6.369c-0.032-0.444-0.062-0.891-0.095-1.338
				L117.929,486.726z"/>
			<path fill="#4C2260" d="M121.36,486.708l0.716-0.261c0.294,0.868,0.588,1.74,0.88,2.609c0.57,1.689,1.141,3.38,1.711,5.072
				c0.408,1.213,1.006,2.46,1.243,3.72c-0.712,0.333-1.563,0.47-2.319,0.683c-0.771,0.217-0.628-1.086-0.703-1.538
				c-0.19-1.134-0.338-2.277-0.509-3.416c-0.279-1.887-0.56-3.775-0.84-5.663C121.527,487.833,121.288,486.735,121.36,486.708z"/>
			<g>
				
					<ellipse transform="matrix(0.9838 -0.1795 0.1795 0.9838 -85.0486 29.6277)" fill="#6B2C8D" cx="121.22" cy="484.854" rx="10.36" ry="2.12"/>
				
					<ellipse transform="matrix(0.9837 -0.1795 0.1795 0.9837 -84.8792 29.5719)" fill="#84449A" cx="120.926" cy="483.689" rx="10.28" ry="2.119"/>
			</g>
		</g>
		
			<ellipse transform="matrix(-0.9045 0.4265 -0.4265 -0.9045 467.1931 819.1436)" fill="#BCBCBC" cx="141.869" cy="461.888" rx="2.061" ry="0.568"/>
		<g>
			<path fill="#DDCEE6" d="M140.835,458.425l0.496,3.163c0,0,1.579,0.402,2.485-0.412l-0.597-3.268
				C143.22,457.909,141.948,457.612,140.835,458.425z"/>
			<path fill="#DD72A2" d="M141.097,458.525c0,0,1.157-0.882,1.8-0.386C142.897,458.139,142.591,459.258,141.097,458.525z"/>
			<path stroke="#442B56" stroke-miterlimit="10" d="M141.983,457.807c0,0,0.069,0.152,0.076,0.639"/>
			<path fill="#E5A624" d="M141.865,457.608c0,0-0.216,0.485,0.11,0.609C141.975,458.217,142.399,458.078,141.865,457.608z"/>
		</g>
		<path fill="#BCBCBC" d="M132.923,463.801c0.078,0.182,0.56,0.15,1.073-0.071c0.516-0.223,0.87-0.55,0.791-0.731
			c-0.078-0.186-0.56-0.152-1.074,0.069C133.198,463.291,132.844,463.618,132.923,463.801z"/>
		<g>
			<g>
				<path fill="#DEDDDD" d="M130.429,459.037c0,0,2.735,1.262,2.735,1.262l0.463,0.214c0,0,2.326-2.388,2.373-2.437
					c-0.106,0.107-0.989-0.08-1.154-0.095c-0.526-0.054-1.058-0.114-1.585-0.056c-0.6,0.063-1.144,0.374-1.682,0.622
					C131.394,458.632,130.587,459.11,130.429,459.037z"/>
				<polygon fill="#DEDDDD" points="133.99,462.826 133.312,460.167 133.806,459.998 134.256,462.585 				"/>
				<polygon fill="#DEDDDD" points="133.588,463.162 134.017,462.206 134.765,462.929 				"/>
			</g>
			<path fill="#6FCBD5" d="M131.26,459.208c0,0,1.967-1.483,4.025-0.668C135.285,458.54,134.077,460.384,131.26,459.208z"/>
			<line fill="#89713D" stroke="#89703D" stroke-miterlimit="10" x1="134.562" y1="457.8" x2="133.777" y2="458.736"/>
			
				<ellipse transform="matrix(0.7471 -0.6648 0.6648 0.7471 -270.7386 205.1042)" fill="#4A7F3B" cx="134.146" cy="458.314" rx="0.38" ry="0.23"/>
		</g>
		
			<ellipse transform="matrix(-0.9984 -0.0573 0.0573 -0.9984 277.1875 927.2699)" fill="#BCBCBC" cx="151.877" cy="459.664" rx="1.015" ry="0.36"/>
		<g>
			<g>
				<path fill="#DEDDDD" d="M147.657,455.406c0,0.001,2.736,1.263,2.736,1.263l0.461,0.214c0,0,2.326-2.39,2.374-2.439
					c-0.108,0.109-0.989-0.076-1.154-0.093c-0.526-0.054-1.058-0.113-1.585-0.057c-0.599,0.064-1.146,0.374-1.683,0.621
					C148.621,455.002,147.814,455.477,147.657,455.406z"/>
				<polygon fill="#DEDDDD" points="151.22,459.195 150.539,456.534 151.034,456.368 151.484,458.955 				"/>
				<polygon fill="#DEDDDD" points="150.815,459.532 151.245,458.574 151.992,459.297 				"/>
			</g>
			<path fill="#D37181" d="M148.489,455.578c0,0,1.965-1.484,4.024-0.668C152.513,454.91,151.305,456.752,148.489,455.578z"/>
			<line fill="#89713D" stroke="#89703D" stroke-miterlimit="10" x1="151.789" y1="454.17" x2="151.003" y2="455.105"/>
			
				<ellipse transform="matrix(0.7456 -0.6664 0.6664 0.7456 -264.5021 216.5713)" fill="#4A7F3B" cx="151.375" cy="454.683" rx="0.38" ry="0.23"/>
		</g>
	</g>
</g>
<g id="Layer_5">
	<g>
		<polyline fill="#CEECF4" points="76.972,316.214 91.548,394.875 169.977,380.637 155.685,301.923 		"/>
		<polyline fill="#F7E37C" points="155.685,301.923 120.5,308.313 143.922,385.369 169.977,380.637 		"/>
		<polyline fill="#B6D8F2" points="120.822,308.254 76.972,316.214 144.441,385.272 		"/>
		<g>
			<path fill="#FFFFFF" d="M117.237,330.922c-1.002-5.519-6.29-9.182-11.809-8.181c-5.521,1.004-9.183,6.289-8.182,11.809
				L117.237,330.922z"/>
			<path fill="#FFFFFF" d="M104.698,333.2c-0.747-4.114-4.684-6.844-8.8-6.096c-4.111,0.747-6.842,4.685-6.094,8.799L104.698,333.2z
				"/>
			<path fill="#FFFFFF" d="M123.197,329.841c-0.598-3.292-3.751-5.472-7.042-4.873c-3.291,0.596-5.472,3.747-4.875,7.036
				L123.197,329.841z"/>
			<path fill="#FFFFFF" d="M92.778,335.364c-0.448-2.466-2.812-4.105-5.28-3.659c-2.469,0.449-4.105,2.817-3.659,5.282
				L92.778,335.364z"/>
		</g>
		<g>
			<path fill="#FFFFFF" d="M134.015,336.604c-0.352-1.93-2.202-3.212-4.134-2.861c-1.934,0.352-3.214,2.2-2.864,4.133
				L134.015,336.604z"/>
			<path fill="#FFFFFF" d="M158.504,332.16c-0.526-2.899-3.303-4.821-6.2-4.296c-2.899,0.525-4.82,3.303-4.295,6.2L158.504,332.16z"
				/>
			<path fill="#FFFFFF" d="M151.507,333.429c-1.052-5.798-6.604-9.645-12.4-8.59c-5.797,1.051-9.643,6.604-8.59,12.4
				L151.507,333.429z"/>
		</g>
		<g>
			<path id="bottomhalf_1_" fill="#EDEDED" d="M88.193,372.117c0,0,12.009,7.418,27.074,6.982c0,0,43.49-2.67,46.31-7.474
				c0,0,2.317-5.646,1.821-10.899"/>
			<path id="tophalf_1_" fill="#FAFDFD" d="M163.397,360.726c-0.203-2.149-1.308-3.612-2.828-4.594
				c-2.026-1.309-4.789-1.762-7.137-1.839c-3.854-0.13-7.703,0.258-11.5,0.893c-1.955,0.327-3.894,0.746-5.822,1.208
				c-1.082,0.259-2.16,0.533-3.238,0.812c-0.366,0.095-3.168,1.068-3.34,0.878l-2.794-3.122c0,0-8.864,5.551-9.161,6.564
				c0,0-21.704,5.415-29.384,10.59c0,0,44.795,2.495,75.204-11.393"/>
			<path fill="#90B5B1" d="M126.711,354.72l6.084,6.661l0.626,6.791l-10.956,1.76l-4.916-8.648
				C117.551,361.284,119.615,358.893,126.711,354.72z"/>
			<polyline fill="#EAEAEA" points="132.888,361.487 133.514,368.28 122.557,370.039 132.888,361.487 			"/>
			<path fill="#AABAB8" d="M140.297,357.551c0,0,1.607-2.465,3.438-3.645l3.378,1.749c0,0-1.187,4.051-2.282,5.236
				c-0.536,0.577-1.739,0.888-2.446,1.134c-1.924,0.67-5.063,1.208-6.559-0.615c-0.688-0.838-0.76-1.836,0.15-2.528
				C137.113,358.016,138.938,357.791,140.297,357.551z"/>
			<path fill="#B7C4C2" d="M141.504,361.829c0,0,1.607-2.463,3.438-3.646l3.379,1.753c0,0-1.187,4.052-2.282,5.232
				c-0.535,0.58-1.738,0.889-2.445,1.135c-1.926,0.671-5.063,1.21-6.559-0.614c-0.688-0.838-0.76-1.836,0.15-2.527
				C138.319,362.295,140.144,362.07,141.504,361.829z"/>
			<path fill="#DBEFEC" d="M116.433,363.616c0,0-11.625,2.098-19.894,6.765c0,0,12.726,0.577,21.683-1.163
				C118.221,369.217,114.229,366.86,116.433,363.616z"/>
			<path fill="#D1E2DE" d="M114.427,364.324c0,0-11.634,2.019-19.944,6.306c0,0,12.703,0.374,21.669-1.286
				C116.152,369.343,112.19,367.267,114.427,364.324z"/>
			<path fill="#69C4B9" d="M105.802,374.75c0,0,40.315-3.299,51.753-7.746l-1.762,4.032c0,0-37.89,6.057-44.865,5.763
				L105.802,374.75z"/>
			<polygon fill="#CFEAE5" points="147.881,357.058 151.677,363.405 160.328,360.478 156.402,355.837 			"/>
		</g>
		<path fill="#79D0E3" d="M167.252,366.99c0.075,1.284-2.323,2.563-4.545,3.171c-2.627,0.72-5.363,0.609-7.909,0.629
			c-2.33,0.021-4.658,0.033-6.974,0.029c-0.254,0.607-1.699,1.225-2.604,1.6c-4.706,1.95-13.997,5.327-19.062,4.246
			c-0.319-0.067-2.988-1.195-3.032-1.183c-3.633,1.041-6.802,2.194-10.034,3.625c-2.827,1.25-5.567,2.039-8.697,1.679
			c-0.448-0.05-3.792-0.771-3.932-0.71c-9.272,4.017-11.19,3.886-11.19,3.886l1.991,10.967l78.713-14.291L167.252,366.99z"/>
	</g>
</g>
<g id="Layer_6">
	
		<line fill="none" stroke="#D8D8D8" stroke-width="2" stroke-miterlimit="10" x1="206.958" y1="478.173" x2="373.359" y2="447.405"/>
	
		<line fill="none" stroke="#D8D8D8" stroke-width="2" stroke-miterlimit="10" x1="205.026" y1="468.257" x2="371.427" y2="437.489"/>
	
		<line fill="none" stroke="#D8D8D8" stroke-width="2" stroke-miterlimit="10" x1="204.057" y1="458.837" x2="370.458" y2="428.069"/>
	
		<line fill="none" stroke="#D8D8D8" stroke-width="2" stroke-miterlimit="10" x1="202.125" y1="448.921" x2="368.525" y2="418.153"/>
	
		<line fill="none" stroke="#D8D8D8" stroke-width="2" stroke-miterlimit="10" x1="200.194" y1="440.492" x2="366.594" y2="409.723"/>
	
		<line fill="none" stroke="#D8D8D8" stroke-width="2" stroke-miterlimit="10" x1="198.262" y1="430.576" x2="364.663" y2="399.807"/>
	
		<line fill="none" stroke="#D8D8D8" stroke-width="2" stroke-miterlimit="10" x1="197.292" y1="421.156" x2="363.693" y2="390.387"/>
	<line fill="none" stroke="#D8D8D8" stroke-width="2" stroke-miterlimit="10" x1="195.36" y1="411.24" x2="361.76" y2="380.471"/>
	
		<line fill="none" stroke="#D8D8D8" stroke-width="2" stroke-miterlimit="10" x1="183.958" y1="371.173" x2="350.359" y2="340.405"/>
	
		<line fill="none" stroke="#D8D8D8" stroke-width="2" stroke-miterlimit="10" x1="182.026" y1="361.257" x2="348.427" y2="330.489"/>
	
		<line fill="none" stroke="#D8D8D8" stroke-width="2" stroke-miterlimit="10" x1="181.057" y1="351.837" x2="347.458" y2="321.069"/>
	
		<line fill="none" stroke="#D8D8D8" stroke-width="2" stroke-miterlimit="10" x1="179.125" y1="341.921" x2="345.525" y2="311.153"/>
	
		<line fill="none" stroke="#D8D8D8" stroke-width="2" stroke-miterlimit="10" x1="177.194" y1="333.492" x2="343.594" y2="302.723"/>
	
		<line fill="none" stroke="#D8D8D8" stroke-width="2" stroke-miterlimit="10" x1="175.262" y1="323.576" x2="341.663" y2="292.807"/>
	
		<line fill="none" stroke="#D8D8D8" stroke-width="2" stroke-miterlimit="10" x1="174.292" y1="314.156" x2="340.693" y2="283.387"/>
	<line fill="none" stroke="#D8D8D8" stroke-width="2" stroke-miterlimit="10" x1="172.36" y1="304.24" x2="338.76" y2="273.471"/>
	<g>
		<defs>
			
				<rect id="SVGID_2_" x="65.798" y="202.56" transform="matrix(-0.9855 0.1695 -0.1695 -0.9855 251.1723 463.6837)" width="80.001" height="80.001"/>
		</defs>
		<clipPath id="SVGID_3_">
			<use xlink:href="#SVGID_2_"  overflow="visible"/>
		</clipPath>
		<g id="Layer_2_1_" clip-path="url(#SVGID_3_)">
			
				<rect x="65.798" y="202.56" transform="matrix(-0.9855 0.1695 -0.1695 -0.9855 251.1723 463.6837)" fill="#CADDF1" width="80.001" height="80.001"/>
			<g>
				<path fill="#FFFFFF" d="M97.03,214.75c-0.951-5.528-6.204-9.24-11.732-8.289c-5.53,0.95-9.241,6.204-8.291,11.732L97.03,214.75z
					"/>
				<path fill="#FFFFFF" d="M84.47,216.91c-0.708-4.121-4.62-6.887-8.742-6.178c-4.119,0.708-6.886,4.621-6.177,8.743L84.47,216.91z
					"/>
				<path fill="#FFFFFF" d="M102.999,213.724c-0.567-3.297-3.699-5.507-6.994-4.94c-3.297,0.567-5.508,3.698-4.941,6.993
					L102.999,213.724z"/>
				<path fill="#FFFFFF" d="M72.53,218.962c-0.424-2.47-2.773-4.132-5.245-3.707c-2.474,0.424-4.131,2.778-3.708,5.247
					L72.53,218.962z"/>
			</g>
			<g>
				<path fill="#FFFFFF" d="M114.758,225.977c-0.332-1.936-2.17-3.235-4.106-2.903c-1.937,0.333-3.234,2.171-2.902,4.107
					L114.758,225.977z"/>
				<path fill="#FFFFFF" d="M139.288,221.759c-0.499-2.904-3.257-4.853-6.16-4.354c-2.904,0.5-4.852,3.257-4.352,6.161
					L139.288,221.759z"/>
				<path fill="#FFFFFF" d="M132.279,222.963c-0.998-5.806-6.514-9.703-12.319-8.705c-5.806,0.999-9.704,6.514-8.707,12.32
					L132.279,222.963z"/>
			</g>
		</g>
		<g id="Layer_1_1_" clip-path="url(#SVGID_3_)">
			<g id="mountains">
				<g>
					<polygon fill="#1E767B" points="94.625,231.363 111.423,244.459 98.863,248.063 					"/>
					<polygon fill="#B3E1E4" points="81.047,247.74 84.844,241.472 87.368,244.392 84.278,264.378 					"/>
					<polygon fill="#FFFFFF" points="59.229,241.284 58.672,239.227 63.12,224.562 75.952,252.345 					"/>
					<polygon fill="#259299" points="72.308,288.598 75.952,252.345 60.918,240.924 59.229,241.284 					"/>
					<polygon fill="#F5ECD9" points="92.948,288.6 72.308,288.598 75.952,252.345 81.047,247.74 					"/>
					<polygon fill="#C2E6E6" points="63.12,224.562 81.047,247.74 75.952,252.345 					"/>
					<polygon fill="#FFFFFF" points="84.844,241.472 94.625,231.363 102.322,261.691 					"/>
					<polygon fill="#1E767B" points="84.278,264.378 95.346,295.297 102.322,261.691 87.368,244.392 					"/>
					<polygon fill="#B3E1E4" points="90.885,282.836 95.346,295.297 84.278,264.378 72.308,288.598 					"/>
					<polygon fill="#259299" points="94.625,231.363 98.863,248.063 102.322,261.691 					"/>
					<polygon fill="#1E767B" points="106.263,290.43 102.322,261.691 95.346,295.297 					"/>
					<polygon fill="#259299" points="128.121,287.644 106.263,290.43 102.322,261.691 					"/>
					<polygon fill="#B3E1E4" points="128.121,287.644 111.423,244.459 102.322,261.691 					"/>
					<polygon fill="#F5ECD9" points="128.121,287.644 141.008,285.415 111.423,244.459 					"/>
					<polygon fill="#1E767B" points="111.423,244.459 131.746,259.619 141.008,285.415 					"/>
					<polygon fill="#6ECBD0" points="141.008,285.415 157.149,281.34 131.746,259.619 					"/>
					<polygon fill="#B3E1E4" points="111.423,244.459 100.872,221.766 122.325,245.68 					"/>
					<polygon fill="#6ECBD0" points="131.746,259.619 122.325,245.68 111.423,244.459 					"/>
					<polygon fill="#FFFFFF" points="111.423,244.459 100.872,221.766 94.625,231.363 					"/>
					<polygon fill="#259299" points="81.047,247.74 84.844,241.472 63.12,224.562 					"/>
					<polygon fill="#6ECBD0" points="157.149,281.34 161.676,276.031 140.753,261.307 					"/>
					<polygon fill="#B3E1E4" points="161.676,276.031 178.451,269.756 155.562,258.38 140.753,261.307 					"/>
					<polygon fill="#C2E6E6" points="139.397,262.506 128.329,251.088 126.772,242.035 133.893,233.142 155.562,258.38 					"/>
					<polygon fill="#1F858B" points="178.451,269.756 133.893,233.142 155.562,258.38 					"/>
					<polygon fill="#FFFFFF" points="130.343,252.902 139.397,262.506 133.893,233.142 122.325,245.68 					"/>
					<polygon fill="#C2E6E6" points="155.562,258.38 161.676,276.031 139.397,262.506 					"/>
				</g>
			</g>
			<g id="planebig">
				<g>
					<path fill="#FFFEF2" d="M69.943,226.516c0.408-0.156,1.004-0.311,1.004-0.311s-0.539,0.298-0.942,0.465
						c-0.403,0.166-0.773,0.216-0.773,0.216S69.536,226.671,69.943,226.516z"/>
					<g>
						<g>
							<g>
								<path fill="#C8C6BC" d="M69.232,226.888l5.011,1.286c0,0,0.247-0.028,0.623-0.093l-5.317-1.317L69.232,226.888
									L69.232,226.888z"/>
								<path fill="#FFFEF2" d="M74.865,228.079c0.588-0.103,1.494-0.296,2.252-0.597c0.989-0.393,3.102-1.616,3.102-1.616
									l-9.302,0.353l-1.368,0.544L74.865,228.079z"/>
							</g>
						</g>
					</g>
					<path opacity="0.4" fill="#BCBAD0" enable-background="new    " d="M69.231,226.888c0,0,0.305-0.217,0.711-0.372
						c0.408-0.156,1.004-0.311,1.004-0.311s-0.009,0.005-0.024,0.013l9.295-0.352c0,0-2.11,1.222-3.1,1.615
						c-0.761,0.304-1.667,0.496-2.254,0.599c-0.375,0.065-0.622,0.093-0.622,0.093L69.231,226.888l0.004-0.001
						C69.233,226.888,69.231,226.888,69.231,226.888z"/>
				</g>
				<g>
					<g>
						<g>
							<path fill="#C8C6BC" d="M98.235,217.971l8.181,2.1c0,0,0.403-0.049,1.015-0.157l-8.679-2.146L98.235,217.971L98.235,217.971z
								"/>
							<path fill="#FFFEF2" d="M107.431,219.915c0.962-0.17,2.439-0.482,3.681-0.976c1.615-0.642,5.061-2.637,5.061-2.637
								l-15.188,0.577l-2.234,0.887L107.431,219.915z"/>
						</g>
					</g>
					<polygon opacity="0.4" fill="#BCBAD0" enable-background="new    " points="108.881,216.573 101.132,218.715 102.539,219.095 
											"/>
				</g>
				<g>
					<path id="carlinga_1_" fill="#FFFEF2" d="M75.014,223.742l3.694,2.323l9.508-1.277l31.716-12.606c0,0,6.963-3.221,9.753-2.625
						l1.066,0.411c0,0,2.494-0.043,3.106,0.643c0.046,0.051,0.081,0.107,0.104,0.167c0.338,0.879-1.136,3.791-11.453,7.892
						L96.56,228.985c-1.927,0.765-4.823,1.286-8.06,1.695c-7.583,0.954-16.646,1.116-16.646,1.116l-0.614-1.542l1.408-1
						l-2.601-3.535L75.014,223.742L75.014,223.742z"/>
					<polygon fill="#FFFEF2" points="66.504,220.899 68.946,219.929 72.642,222.251 68.662,223.832 					"/>
					<g>
						<polygon fill="#5F87C5" points="70.761,225.433 70.05,225.715 68.662,223.832 69.273,223.589 						"/>
						<polygon fill="#5F87C5" points="72.642,222.251 75.014,223.742 70.761,225.433 69.273,223.589 						"/>
					</g>
				</g>
				<g>
					<polygon fill="#C8C6BC" points="78.302,228.138 76.829,231.634 74.208,231.736 					"/>
					<g>
						<path fill="#C8C6BC" d="M70.132,234.53l2.596-4.114c0,0,0.188-0.14,0.485-0.336l-2.785,4.33L70.132,234.53L70.132,234.53z"/>
						<path fill="#FFFEF2" d="M73.214,230.081c0.472-0.311,1.213-0.763,1.927-1.047c0.929-0.37,3.161-0.896,3.161-0.896
							l-5.863,5.475l-2.009,0.798L73.214,230.081z"/>
					</g>
				</g>
				<g>
					<polygon fill="#5F87C5" points="73.258,228.207 73.108,228.328 66.978,220.75 67.128,220.63 					"/>
				</g>
				<g>
					<path fill="none" stroke="#4F4D82" stroke-width="10" stroke-miterlimit="10" d="M93.954,227.934"/>
				</g>
				<g id="worksharelogo">
					<g>
						<path fill="#5F87C5" d="M93.314,226.588l28.509-12.041l1.762,1.051l-29.913,11.891c-4.449,1.769-7.721,2.944-10.054,3.72
							c-1.511,0.125-2.995,0.224-4.371,0.304C80.831,231.104,85.045,229.875,93.314,226.588z"/>
					</g>
					<g>
						<path fill="#5F87C5" d="M93.795,227.799l23.997-9.539l-0.271,0.629l-23.546,9.359c-2.725,1.084-5.007,1.942-6.9,2.625
							c-0.685,0.077-1.377,0.147-2.067,0.211C87.213,230.327,90.1,229.268,93.795,227.799z"/>
					</g>
				</g>
				<path fill="#E4E2D6" d="M133.859,210.61c0.045,0.051,0.082,0.107,0.104,0.167c0.337,0.879-1.136,3.79-11.454,7.891
					l-25.948,10.315c-4.865,1.934-17.314,2.528-17.314,2.528s5.988,0.154,21.556-6.035
					C133.087,212.643,133.806,210.648,133.859,210.61z"/>
				<g>
					<g>
						<path fill="#EDEDE6" d="M116.321,221.952c-4.076,2.326-6.256,2.432-7.561,2.59l-0.859-2.164
							c1.056-0.778,2.715-2.199,7.273-3.308L116.321,221.952z"/>
						<polygon fill="#C8C6BC" points="115.782,219.245 115.926,219.607 116.642,221.409 116.321,221.952 115.461,219.792 
							115.175,219.07 						"/>
						<g>
							<polygon fill="#EDEDE6" points="108.697,224.375 108.188,224.446 107.549,222.842 107.967,222.544 							"/>
							<g>
								<polygon fill="#EDEDE6" points="108.095,224.216 106.569,224.426 106.386,223.967 107.64,223.071 								"/>
							</g>
						</g>
						<g>
							<path fill="#C8C6BC" d="M107.788,222.423c0.921-0.682,2.302-1.848,5.667-2.871l-1.948,4.519
								c-1.279,0.365-2.187,0.434-2.859,0.514L107.788,222.423L107.788,222.423z"/>
						</g>
					</g>
					<g>
						<path fill="#C8C6BC" d="M99.256,230.625l4.506-7.144c0,0,0.325-0.24,0.842-0.58l-4.835,7.521L99.256,230.625L99.256,230.625z"
							/>
						<path fill="#FFFEF2" d="M104.607,222.899c0.817-0.538,2.106-1.325,3.346-1.817c1.613-0.642,5.489-1.559,5.489-1.559
							l-10.185,9.51l-3.487,1.387L104.607,222.899z"/>
					</g>
				</g>
				<g>
					<path fill="#30ABE2" d="M129.685,209.556l-2.115,0.84c0,0,0.134,0.782,3.182-0.43L129.685,209.556L129.685,209.556z"/>
					<g>
						<g>
							<path fill="#30ABE2" d="M88.663,226.697c0.04,0.101,0.152,0.149,0.251,0.109l0.181-0.071c0.1-0.04,0.148-0.152,0.109-0.251
								l-0.142-0.362c-0.041-0.101-0.154-0.148-0.252-0.108l-0.181,0.071c-0.1,0.04-0.149,0.151-0.109,0.252L88.663,226.697z"/>
						</g>
						<g>
							<path fill="#30ABE2" d="M90.104,226.124c0.04,0.1,0.153,0.149,0.252,0.11l0.18-0.072c0.1-0.04,0.149-0.152,0.108-0.251
								l-0.143-0.36c-0.039-0.1-0.151-0.148-0.251-0.108l-0.181,0.072c-0.098,0.04-0.148,0.15-0.109,0.252L90.104,226.124z"/>
						</g>
						<g>
							<path fill="#30ABE2" d="M91.547,225.551c0.04,0.099,0.152,0.148,0.251,0.109l0.18-0.072c0.102-0.04,0.149-0.153,0.109-0.252
								l-0.142-0.36c-0.041-0.102-0.152-0.148-0.253-0.109l-0.18,0.071c-0.099,0.04-0.149,0.151-0.108,0.253L91.547,225.551z"/>
						</g>
						<g>
							<path fill="#30ABE2" d="M92.988,224.978c0.039,0.1,0.153,0.148,0.251,0.109l0.18-0.071c0.101-0.039,0.148-0.153,0.109-0.252
								l-0.143-0.361c-0.04-0.101-0.152-0.147-0.252-0.108l-0.18,0.072c-0.099,0.04-0.149,0.15-0.108,0.252L92.988,224.978z"/>
						</g>
						<g>
							<path fill="#30ABE2" d="M94.429,224.405c0.04,0.1,0.153,0.148,0.251,0.109l0.182-0.072c0.099-0.039,0.146-0.152,0.108-0.251
								l-0.143-0.362c-0.041-0.1-0.152-0.147-0.251-0.108l-0.182,0.072c-0.097,0.04-0.148,0.151-0.108,0.251L94.429,224.405z"/>
						</g>
						<g>
							<path fill="#30ABE2" d="M95.872,223.832c0.039,0.1,0.152,0.148,0.251,0.11l0.18-0.073c0.101-0.04,0.148-0.152,0.108-0.251
								l-0.143-0.359c-0.04-0.102-0.152-0.149-0.252-0.109l-0.18,0.071c-0.099,0.04-0.149,0.151-0.108,0.251L95.872,223.832z"/>
						</g>
						<g>
							<path fill="#30ABE2" d="M97.313,223.259c0.04,0.1,0.152,0.149,0.251,0.109l0.18-0.072c0.101-0.039,0.149-0.152,0.109-0.251
								l-0.144-0.361c-0.039-0.1-0.151-0.148-0.252-0.106l-0.18,0.07c-0.099,0.04-0.147,0.151-0.109,0.252L97.313,223.259z"/>
						</g>
						<g>
							<path fill="#30ABE2" d="M98.754,222.687c0.039,0.099,0.152,0.147,0.251,0.108l0.18-0.072c0.099-0.04,0.148-0.152,0.109-0.251
								l-0.144-0.36c-0.04-0.102-0.151-0.149-0.252-0.109l-0.181,0.071c-0.099,0.04-0.148,0.151-0.107,0.253L98.754,222.687z"/>
						</g>
						<g>
							<path fill="#30ABE2" d="M100.196,222.113c0.04,0.1,0.152,0.148,0.252,0.109l0.181-0.071c0.1-0.041,0.146-0.154,0.108-0.253
								l-0.143-0.36c-0.042-0.101-0.152-0.148-0.252-0.108l-0.179,0.071c-0.1,0.04-0.15,0.152-0.11,0.251L100.196,222.113z"/>
						</g>
						<g>
							<path fill="#30ABE2" d="M101.636,221.541c0.04,0.099,0.154,0.147,0.253,0.108l0.179-0.072c0.1-0.039,0.148-0.152,0.108-0.252
								l-0.144-0.36c-0.04-0.103-0.151-0.148-0.251-0.108l-0.18,0.071c-0.1,0.041-0.15,0.152-0.109,0.253L101.636,221.541z"/>
						</g>
						<g>
							<path fill="#30ABE2" d="M103.079,220.968c0.038,0.099,0.152,0.147,0.25,0.108l0.181-0.073c0.1-0.039,0.148-0.151,0.109-0.251
								l-0.144-0.361c-0.04-0.101-0.152-0.149-0.252-0.11l-0.18,0.072c-0.098,0.041-0.149,0.151-0.108,0.252L103.079,220.968z"/>
						</g>
						<g>
							<path fill="#30ABE2" d="M104.52,220.395c0.04,0.098,0.154,0.147,0.251,0.109l0.181-0.073c0.1-0.04,0.148-0.152,0.109-0.252
								l-0.145-0.359c-0.039-0.101-0.151-0.149-0.25-0.11l-0.18,0.073c-0.1,0.038-0.148,0.149-0.109,0.25L104.52,220.395z"/>
						</g>
						<g>
							<path fill="#30ABE2" d="M105.961,219.822c0.041,0.099,0.154,0.147,0.253,0.107l0.181-0.071c0.1-0.04,0.148-0.152,0.107-0.251
								l-0.143-0.362c-0.04-0.101-0.151-0.147-0.251-0.107l-0.181,0.071c-0.099,0.04-0.148,0.151-0.109,0.252L105.961,219.822z"/>
						</g>
						<g>
							<path fill="#30ABE2" d="M107.404,219.248c0.039,0.1,0.151,0.147,0.251,0.11l0.179-0.073c0.1-0.039,0.148-0.152,0.109-0.251
								l-0.143-0.361c-0.042-0.1-0.152-0.148-0.251-0.108l-0.181,0.072c-0.098,0.038-0.149,0.15-0.108,0.251L107.404,219.248z"/>
						</g>
						<g>
							<path fill="#30ABE2" d="M108.846,218.674c0.04,0.1,0.152,0.149,0.251,0.109l0.181-0.072c0.1-0.039,0.147-0.152,0.109-0.252
								l-0.144-0.36c-0.041-0.101-0.152-0.148-0.252-0.108l-0.181,0.071c-0.098,0.04-0.149,0.151-0.108,0.252L108.846,218.674z"/>
						</g>
						<g>
							<path fill="#30ABE2" d="M110.287,218.101c0.039,0.1,0.152,0.149,0.252,0.108l0.18-0.071c0.1-0.039,0.147-0.153,0.108-0.251
								l-0.142-0.361c-0.041-0.102-0.154-0.148-0.253-0.108l-0.179,0.071c-0.099,0.04-0.148,0.151-0.109,0.252L110.287,218.101z"/>
						</g>
						<g>
							<path fill="#30ABE2" d="M111.728,217.529c0.041,0.1,0.153,0.148,0.252,0.108l0.18-0.071c0.101-0.039,0.148-0.153,0.108-0.252
								l-0.143-0.361c-0.041-0.101-0.153-0.148-0.252-0.109l-0.18,0.072c-0.099,0.041-0.149,0.15-0.109,0.252L111.728,217.529z"/>
						</g>
						<g>
							<path fill="#30ABE2" d="M113.17,216.955c0.039,0.1,0.153,0.148,0.251,0.109l0.18-0.072c0.1-0.041,0.148-0.152,0.109-0.252
								l-0.144-0.359c-0.039-0.102-0.151-0.149-0.25-0.109l-0.181,0.072c-0.1,0.038-0.148,0.149-0.108,0.25L113.17,216.955z"/>
						</g>
						<g>
							<path fill="#30ABE2" d="M114.611,216.382c0.04,0.1,0.152,0.147,0.252,0.109l0.181-0.072c0.099-0.04,0.147-0.153,0.107-0.251
								l-0.143-0.361c-0.04-0.102-0.152-0.147-0.252-0.108l-0.18,0.071c-0.099,0.04-0.148,0.151-0.109,0.252L114.611,216.382z"/>
						</g>
						<g>
							<path fill="#30ABE2" d="M116.053,215.81c0.04,0.099,0.153,0.146,0.253,0.108l0.18-0.073c0.101-0.038,0.148-0.152,0.107-0.251
								l-0.142-0.36c-0.042-0.101-0.152-0.148-0.252-0.109l-0.181,0.072c-0.098,0.04-0.149,0.151-0.108,0.253L116.053,215.81z"/>
						</g>
						<g>
							<path fill="#30ABE2" d="M117.495,215.236c0.039,0.099,0.152,0.148,0.25,0.11l0.182-0.072
								c0.099-0.041,0.146-0.153,0.107-0.253l-0.144-0.359c-0.041-0.101-0.151-0.148-0.251-0.109l-0.18,0.071
								c-0.099,0.04-0.147,0.151-0.108,0.253L117.495,215.236z"/>
						</g>
						<g>
							<path fill="#30ABE2" d="M118.937,214.664c0.039,0.1,0.152,0.147,0.251,0.108l0.181-0.071c0.1-0.039,0.147-0.152,0.108-0.253
								l-0.143-0.359c-0.04-0.103-0.152-0.148-0.253-0.109l-0.179,0.072c-0.1,0.039-0.149,0.15-0.109,0.252L118.937,214.664z"/>
						</g>
						<g>
							<path fill="#30ABE2" d="M120.377,214.091c0.041,0.1,0.154,0.147,0.253,0.108l0.18-0.072c0.1-0.04,0.148-0.152,0.109-0.251
								l-0.144-0.362c-0.04-0.1-0.152-0.146-0.251-0.108l-0.181,0.073c-0.099,0.039-0.149,0.151-0.109,0.25L120.377,214.091z"/>
						</g>
						<g>
							<path fill="#30ABE2" d="M121.819,213.517c0.039,0.1,0.153,0.148,0.252,0.109l0.18-0.072c0.1-0.041,0.149-0.153,0.11-0.251
								l-0.144-0.361c-0.04-0.101-0.152-0.148-0.251-0.109l-0.18,0.071c-0.101,0.039-0.15,0.151-0.11,0.252L121.819,213.517z"/>
						</g>
					</g>
				</g>
				<path fill="#FFFEF2" d="M100.916,229.757c0.951-0.365,2.342-0.724,2.342-0.724s-1.258,0.694-2.199,1.083
					c-0.941,0.385-1.802,0.508-1.802,0.508S99.966,230.119,100.916,229.757z"/>
				<path fill="#FFFEF2" d="M71.091,234.026c0.549-0.21,1.354-0.418,1.354-0.418s-0.729,0.402-1.272,0.626
					c-0.543,0.226-1.042,0.294-1.042,0.294S70.541,234.235,71.091,234.026z"/>
				<polygon fill="#FFFEF2" points="129.162,209.636 129.932,210.319 129.803,210.464 129.032,209.781 				"/>
				<polygon fill="#FFFEF2" points="128.472,209.902 128.882,210.612 128.712,210.709 128.304,210 				"/>
				<path fill="#E4E2D6" d="M126.213,212.592c0.049-0.02,0.106,0.005,0.127,0.055c0.019,0.049-0.005,0.107-0.055,0.125
					c-0.051,0.02-0.107-0.004-0.127-0.054C126.139,212.669,126.164,212.611,126.213,212.592z"/>
				<path fill="#E4E2D6" d="M87.126,228.13c0.051-0.02,0.106,0.004,0.126,0.054c0.02,0.051-0.003,0.107-0.055,0.126
					c-0.049,0.02-0.105-0.005-0.125-0.055C87.053,228.206,87.077,228.15,87.126,228.13z"/>
			</g>
		</g>
		<g id="Layer_2_2_" clip-path="url(#SVGID_3_)">
			<g>
				<path fill="#FFFFFF" d="M97.03,214.75c-0.951-5.528-6.204-9.24-11.732-8.289c-5.53,0.95-9.241,6.204-8.291,11.732L97.03,214.75z
					"/>
				<path fill="#FFFFFF" d="M84.47,216.91c-0.708-4.121-4.62-6.887-8.742-6.178c-4.119,0.708-6.886,4.621-6.177,8.743L84.47,216.91z
					"/>
				<path fill="#FFFFFF" d="M102.999,213.724c-0.567-3.297-3.699-5.507-6.994-4.94c-3.297,0.567-5.508,3.698-4.941,6.993
					L102.999,213.724z"/>
				<path fill="#FFFFFF" d="M72.53,218.962c-0.424-2.47-2.773-4.132-5.245-3.707c-2.474,0.424-4.131,2.778-3.708,5.247
					L72.53,218.962z"/>
			</g>
			<g>
				<path fill="#FFFFFF" d="M114.758,225.977c-0.332-1.936-2.17-3.235-4.106-2.903c-1.937,0.333-3.234,2.171-2.902,4.107
					L114.758,225.977z"/>
				<path fill="#FFFFFF" d="M139.288,221.759c-0.499-2.904-3.257-4.853-6.16-4.354c-2.904,0.5-4.852,3.257-4.352,6.161
					L139.288,221.759z"/>
				<path fill="#FFFFFF" d="M132.279,222.963c-0.998-5.806-6.514-9.703-12.319-8.705c-5.806,0.999-9.704,6.514-8.707,12.32
					L132.279,222.963z"/>
			</g>
		</g>
	</g>
	
		<line fill="none" stroke="#D8D8D8" stroke-width="2" stroke-miterlimit="10" x1="163.958" y1="265.173" x2="330.359" y2="234.405"/>
	
		<line fill="none" stroke="#D8D8D8" stroke-width="2" stroke-miterlimit="10" x1="162.026" y1="255.257" x2="328.427" y2="224.489"/>
	
		<line fill="none" stroke="#D8D8D8" stroke-width="2" stroke-miterlimit="10" x1="161.057" y1="245.837" x2="327.458" y2="215.069"/>
	
		<line fill="none" stroke="#D8D8D8" stroke-width="2" stroke-miterlimit="10" x1="159.125" y1="235.921" x2="325.525" y2="205.153"/>
	
		<line fill="none" stroke="#D8D8D8" stroke-width="2" stroke-miterlimit="10" x1="157.194" y1="227.492" x2="323.594" y2="196.723"/>
	
		<line fill="none" stroke="#D8D8D8" stroke-width="2" stroke-miterlimit="10" x1="155.262" y1="217.576" x2="321.663" y2="186.807"/>
	
		<line fill="none" stroke="#D8D8D8" stroke-width="2" stroke-miterlimit="10" x1="155.292" y1="206.156" x2="321.693" y2="175.387"/>
	<line fill="none" stroke="#D8D8D8" stroke-width="2" stroke-miterlimit="10" x1="153.36" y1="196.24" x2="319.76" y2="165.471"/>
	<g>
		<g>
			<path fill="#31ADE3" d="M243.259,141.888c-1.189,0.664-2.736,0.848-4.08,1.03c-1.477,0.199-2.967,0.292-4.444,0.489
				c-8.266,1.096-16.756,2.366-15.988,9.562c0.017-0.001,0.033-0.004,0.051-0.007c0.965-7.468,16.271-2.932,22.171-6.663
				c0.32-0.202,0.63-0.419,0.92-0.656c0.427-0.348,0.815-0.739,1.146-1.163c0.405-0.52,0.739-1.093,0.967-1.692
				c0.268-0.697,0.569-1.318,0.441-2.059C244.125,141.19,243.776,141.599,243.259,141.888z M239.398,148.661
				c-0.934,0.429-1.895,0.726-2.917,0.905c-1.085,0.19-2.188,0.288-3.286,0.338c-1.155,0.054-2.309,0.047-3.463,0.05
				c-1.152,0.003-2.306,0.021-3.458,0.05c-0.261,0.007-0.521,0.019-0.782,0.036c-0.609,0.04-1.212,0.118-1.814,0.212
				c-0.114,0.018-0.227,0.038-0.34,0.056c-0.341,0.057-0.682,0.119-1.016,0.205c-1.101,0.278-2.215,0.82-2.712,1.816
				c-0.276,0.555-0.523,1.254-0.526,1.862c0.293-0.355,0.551-0.722,0.907-1.033c0.317-0.276,0.702-0.498,1.106-0.647
				c1.486-0.549,3.19-0.41,4.73-0.271c0.49,0.045,0.979,0.1,1.469,0.152c5.232,0.562,10.404-0.17,12.481-3.841
				c-0.019-0.014-0.038-0.026-0.056-0.04C239.616,148.566,239.505,148.612,239.398,148.661z M228.357,153.834
				c-0.926-0.097-1.836-0.271-2.752-0.416c-0.554-0.087-1.117-0.148-1.677-0.194c-0.845-0.07-1.729-0.125-2.579-0.012
				c-0.089,0.011-0.179,0.027-0.267,0.048c-0.592,0.132-1.147,0.446-1.407,0.978c-0.133,0.273-0.187,0.572-0.164,0.865
				c0.023,0.289,0.119,0.576,0.297,0.813c0.229,0.305,0.633,0.56,1.063,0.42c0.376-0.123,0.59-0.504,0.636-0.841
				c0.028-0.197,0.015-0.401-0.016-0.596c-0.009-0.057-0.109-0.601-0.158-0.599c2.731-0.066,5.043,2.461,8.752,0.977
				c0.987-0.395,1.552-0.995,2.203-1.594c0.011-0.047,0.022-0.096,0.034-0.143C230.921,153.741,229.583,153.961,228.357,153.834z"/>
		</g>
	</g>
	
		<text transform="matrix(0.9854 -0.1702 0.1702 0.9854 132.644 175.0527)" fill="#30ADE3" font-family="'AvenirLT-Book'" font-size="24">NALDA</text>
</g>
<g id="Layer_3">
	<g>
		<path fill="#3A3A3A" d="M123.164,445.831c1.127,3.74-1.143,7.732-5.069,8.916l0,0c-3.927,1.182-8.023-0.895-9.15-4.635
			l-15.444-51.3c-1.126-3.741,1.143-7.733,5.07-8.915l0,0c3.927-1.183,8.023,0.893,9.15,4.635L123.164,445.831z"/>
		
			<rect x="95.714" y="404.145" transform="matrix(0.9575 -0.2883 0.2883 0.9575 -112.4008 46.9331)" fill="#F7CF2D" width="14.85" height="1.852"/>
		<polyline fill="#898989" points="131.751,512.971 137.698,518.905 139.08,510.33 		"/>
		<path fill="#3A3A3A" d="M140.846,504.563c1.126,3.742-1.143,7.733-5.07,8.916l0,0c-3.927,1.182-8.023-0.894-9.149-4.635
			l-15.444-51.299c-1.127-3.742,1.143-7.734,5.07-8.917l0,0c3.926-1.183,8.022,0.894,9.149,4.636L140.846,504.563z"/>
		
			<rect x="124.856" y="500.943" transform="matrix(0.9575 -0.2883 0.2883 0.9575 -139.0742 59.447)" fill="#F7CF2D" width="14.85" height="1.852"/>
		
			<ellipse transform="matrix(0.9575 -0.2883 0.2883 0.9575 -125.2092 52.9318)" fill="#FCD533" cx="117.106" cy="451.569" rx="6.158" ry="1.911"/>
	</g>
</g>
</svg>
